<?xml version="1.0" encoding="UTF-8"?>
<svg id="Layer_1" data-name="Layer 1" xmlns="http://www.w3.org/2000/svg" viewBox="0 0 1729.07 375.9277">
  <path d="M144.7624,235.8963c-8.1099,5.9756-16.5352,11.4707-25.2798,16.4805-8.75,5.0146-17.7603,9.1748-27.04,12.4805-9.2803,3.3096-18.8301,5.5996-28.6401,6.8799-9.8149,1.2793-19.7349,1.0645-29.7598-.6406-8.3203-1.0645-15.6304-3.7852-21.9204-8.1602-6.29-4.3691-10.1851-10.9297-11.6797-19.6797-.6401-3.4102-.585-7.0898.1597-11.04.75-3.9453,2.1353-7.5195,4.1602-10.7197,2.0303-3.2002,4.6948-5.6504,8-7.3604,3.3052-1.7051,7.0898-2.0244,11.3599-.96,2.5601.6406,4.9053,2.1348,7.04,4.4805,2.1304,2.3496,3.6802,5.0146,4.6401,8,.96,2.9893,1.2251,5.9199.7998,8.7998-.4297,2.8799-1.8149,5.2803-4.1597,7.2002-3.415,2.5596-5.0703,5.2295-4.96,8,.105,2.7744,1.1196,5.2793,3.04,7.5195,1.9199,2.2402,4.4248,4.0557,7.52,5.4404,3.0898,1.3896,6.1299,2.0801,9.1196,2.0801,9.3853.2148,18.0801-1.3857,26.0801-4.8008,8-3.4092,15.73-7.8896,23.2002-13.4395,10.665-8.7451,20-18.5049,28-29.2803,8-10.7695,15.3599-21.9697,22.0801-33.5996,6.7197-11.625,13.1699-23.52,19.3599-35.6802,6.1851-12.1597,12.7451-23.9448,19.6797-35.3599,6.9302-11.4097,14.665-22.3447,23.2002-32.7998,8.5303-10.4502,18.4502-19.73,29.7603-27.8403,3.625-2.5596,7.3599-4.96,11.1997-7.1997,3.8398-2.2402,7.6802-4.21,11.52-5.9199,1.2803-.4253,2.8799-1.0103,4.8003-1.7603,1.9199-.7451,3.8398-1.3848,5.7598-1.9199,1.9199-.5298,3.73-.7451,5.4399-.6401,1.7051.1104,2.9849.9102,3.8398,2.4004.8501,1.71,1.1201,2.9897.8003,3.8398-.3203.855-.96,1.4951-1.9199,1.9199-.96.4302-2.0801.6948-3.3604.7998-1.2798.1104-2.4546.27-3.52.48-4.9097,1.2803-9.335,3.52-13.2798,6.7202-3.9502,3.2002-7.52,6.9902-10.7202,11.3599-3.1997,4.375-6.0796,8.9102-8.6396,13.6001-2.5601,4.6948-4.9102,9.0698-7.04,13.1201-7.04,12.5898-13.3901,25.6001-19.04,39.04-5.6553,13.4399-11.6802,26.6147-18.0801,39.52-6.3999,12.9097-13.6548,25.23-21.7598,36.96-8.1104,11.7349-18.0303,22.2944-29.7603,31.6792ZM71.4826,133.4969c.6396-11.3047,2.9849-21.8101,7.04-31.52,4.0498-9.7051,9.3296-18.665,15.8398-26.8799,6.5049-8.21,13.9199-15.7852,22.2397-22.7197,8.3203-6.9302,16.96-13.2803,25.9204-19.04,8.96-5.7603,18.4497-10.9302,28.48-15.52,10.0249-4.585,20.3198-8.21,30.8799-10.8804,10.5601-2.665,21.2251-4.3198,32-4.96,10.77-.6396,21.4897,0,32.1602,1.9199,8.96,1.7104,17.5449,4.4805,25.7598,8.3203,8.21,3.8398,15.2002,9.1748,20.96,16,7.04,8.1099,11.25,17.2798,12.6401,27.52,1.3848,10.2397.7998,20.375-1.7603,30.3999-2.5601,9.3901-6.6147,17.6548-12.1597,24.7998-5.5503,7.1504-12.0552,13.1753-19.52,18.0801-7.4702,4.9102-15.6802,8.6401-24.6401,11.2002s-18.0298,3.7349-27.2002,3.52c-.6396,0-2.1899-.0503-4.6396-.1602-2.4551-.105-4.9102-.48-7.3604-1.1201-2.4546-.6396-4.375-1.4897-5.7598-2.5601-1.3901-1.0649-1.335-2.5596.1602-4.48,1.0649-1.7046,2.8799-2.1846,5.4399-1.4399,2.5601.75,4.585,1.1201,6.0801,1.1201,2.9849.2148,5.9697.1602,8.96-.1602,2.9849-.3198,5.8647-1.0098,8.6396-2.0796,8.3203-2.77,15.3052-7.3604,20.96-13.7603,5.6504-6.3999,10.4004-13.3301,14.2402-20.7998,4.48-8.5303,7.3599-17.7603,8.6401-27.6802,1.2798-9.9199.105-19.3599-3.52-28.3198-3.6304-9.1699-9.0703-16-16.3203-20.48-7.2549-4.48-15.5747-7.25-24.96-8.3203-10.2397-1.0649-20.48-1.0649-30.7197,0-10.2402,1.0703-20.27,3.3101-30.0801,6.7202-9.6001,3.415-18.3999,7.9497-26.3999,13.6001-8,5.6548-15.9502,11.5747-23.8403,17.7598-7.2549,6.1899-13.6548,12.96-19.1997,20.3198-5.5503,7.3604-10.2402,15.52-14.0801,24.4805-1.4951,3.6299-2.7749,7.8398-3.8398,12.6396-1.0703,4.8003-1.5503,9.5503-1.4404,14.2402.105,4.6948,1.0103,9.1201,2.7202,13.2798,1.7051,4.1602,4.585,7.415,8.6401,9.7603,2.77,1.71,5.9697,2.7197,9.6001,3.04,3.625.3198,7.25.27,10.8799-.1602,3.625-.4248,7.145-1.3301,10.5601-2.7202,3.4097-1.3848,6.29-3.04,8.6396-4.96.6401-.4248,1.3853-1.1196,2.2402-2.0801.8501-.96,1.7598-1.9199,2.7197-2.8799.9604-.96,1.9204-1.6499,2.8804-2.0801.96-.4248,1.8647-.4248,2.7197,0,1.4902,1.0703,1.9199,2.4551,1.2803,4.1602-.6401,1.71-1.2803,3.0952-1.9199,4.1602-5.3354,7.2549-12.2153,13.2798-20.6401,18.0801-8.4302,4.7998-16.6953,8.1597-24.8003,10.0796-4.48,1.0703-9.0698,1.4951-13.7598,1.2803-4.6948-.21-9.0698-1.1201-13.1201-2.7202-4.0547-1.6001-7.5747-4.0498-10.5601-7.3599-2.9897-3.3052-5.0146-7.52-6.0801-12.6401-.4297-2.77-.75-5.4897-.96-8.1597-.2148-2.665-.4297-5.2803-.6396-7.8403Z"/>
  <path d="M260.2849,244.5369c.6401,4.9102,2.3447,8.1602,5.1201,9.7598,2.77,1.5996,6.0249,2.1904,9.7598,1.7598,3.73-.4248,7.52-1.4893,11.3599-3.1992,3.8403-1.7051,7.04-3.4102,9.6001-5.1201,5.9702-3.625,12-8.3701,18.0801-14.2402,6.0801-5.8652,11.7852-11.8398,17.1201-17.9199,5.3301-6.0801,10.1299-11.7852,14.3999-17.1201,4.2651-5.3296,7.6802-9.3848,10.2397-12.1597,1.4902-1.7051,2.5054-2.0801,3.04-1.1201.5303.96.585,2.2949.1602,4-1.0698,3.2002-3.2002,7.0947-6.3999,11.6802-3.2002,4.5898-7.04,9.4399-11.52,14.5596-4.48,5.1201-9.335,10.3496-14.5601,15.6797-5.23,5.335-10.3999,10.2402-15.52,14.7207-5.1201,4.4795-9.8701,8.4297-14.2397,11.8398-4.375,3.415-7.9502,5.8701-10.7202,7.3594-4.0552,2.3506-8.6948,4.2158-13.9199,5.6006-5.23,1.3848-10.3501,1.9697-15.3599,1.7598-5.0151-.2148-9.7104-1.4951-14.0801-3.8398-4.375-2.3447-7.8403-6.0801-10.3999-11.2002-2.1304-4.4795-3.25-9.2803-3.3604-14.4004-.105-5.1191.4302-10.2393,1.6001-15.3594,1.1748-5.1201,2.7749-10.0801,4.7998-14.8799,2.0303-4.8003,4.2104-9.3301,6.5601-13.6001,6.1851-11.9448,13.7603-22.6099,22.7202-32,8.96-9.3848,19.1997-17.4897,30.7197-24.3198,5.5454-3.625,11.3604-6.6104,17.4404-8.96,6.0796-2.3452,12.3198-4.0503,18.7197-5.1201,4.0503-.8501,8.4253-1.0649,13.1201-.6401,4.6899.4302,8.21,2.6699,10.5601,6.7202,1.9199,2.9897,2.77,6.1348,2.5601,9.4399-.2153,3.3101-.96,6.5601-2.2402,9.7598-1.2798,3.2002-2.9351,6.1899-4.96,8.96-2.0298,2.7754-4.1099,5.23-6.2397,7.3604-5.1201,5.5498-10.9351,10.3496-17.4404,14.3999-6.5098,4.0552-13.0698,7.5747-19.6797,10.5601-3.6299,1.4951-7.2002,2.8301-10.7202,4-3.52,1.1748-7.1997,2.2949-11.04,3.3599-2.1348.4302-4.6948.75-7.6797.96-2.9902.2148-5.23,1.1753-6.7202,2.8799-1.71,1.71-3.04,4.27-4,7.6797-.96,3.415-1.9751,6.2949-3.04,8.6406-1.4951,3.415-2.6147,6.9893-3.3599,10.7197-.75,3.7354-.9102,7.415-.48,11.04ZM275.9646,196.5369c7.4653-.4248,14.2402-2.77,20.3203-7.04,6.0801-4.2646,11.8901-8.8501,17.4399-13.7598,2.77-2.3452,5.3848-4.8501,7.8398-7.52,2.4502-2.665,4.6401-5.4902,6.5601-8.48,1.2803-2.3452,2.77-5.2803,4.48-8.8003,1.7051-3.52,2.4502-6.665,2.2402-9.4399-.2153-2.3447-.96-3.73-2.2402-4.1597-1.2798-.4253-2.8799-.2651-4.7998.48-1.9199.75-4,1.9199-6.2402,3.52-2.2397,1.5996-4.3198,3.2549-6.2397,4.96-1.9199,1.71-3.6299,3.3599-5.1201,4.96-1.4951,1.6001-2.4551,2.6147-2.8799,3.04-6.1899,6.3999-11.79,13.1748-16.8003,20.3198-5.0146,7.1499-9.8696,14.4551-14.5601,21.9199Z"/>
  <path d="M374.5251,149.4969c1.7051-2.3447,2.5601-4.6899,2.5601-7.04,0-2.3447.105-4.9048.3203-7.6797.21-2.3452.2646-3.6802.1597-4-.1099-.3203.6899-.48,2.3999-.48,1.4902,0,3.9453-.105,7.3604-.3203,3.4097-.21,6.8799-.3696,10.3999-.48,3.52-.105,6.6099-.21,9.2798-.3198,2.665-.105,3.8901-.1602,3.6802-.1602.4248.6401.9048,1.6001,1.4399,2.8799.5303,1.2803.8003,2.5601.8003,3.8403-.4302,2.9897-1.4404,6.0801-3.04,9.2798-1.6001,3.2002-3.04,6.2949-4.3203,9.2803,4.2651-3.625,8.5303-7.145,12.8003-10.5601,4.2646-3.4102,8.8496-6.3999,13.7598-8.96,2.1299-1.2803,4.585-2.4502,7.3599-3.52,2.77-1.0649,5.6504-1.8101,8.6401-2.2402,2.9849-.4248,5.9702-.585,8.96-.48,2.9849.1099,5.7603.6953,8.3203,1.7603,5.7598,2.7749,8.9048,6.9351,9.4399,12.48.5298,5.5498.1597,10.9897-1.1201,16.3198-2.3501,7.4702-6.0801,14.6699-11.2002,21.6001-5.1196,6.9351-9.8149,13.6001-14.0801,20-3.8398,5.7598-7.5747,11.5195-11.1997,17.2793-3.6299,5.7607-7.1499,11.7354-10.5601,17.9199-.6401,1.2803-1.6001,3.04-2.8799,5.2803-1.2803,2.2402-2.2402,4.4805-2.8799,6.7197-.6401,2.2402-.6401,4.1602,0,5.7607.6396,1.5996,2.5596,2.1895,5.7598,1.7598,6.8252-1.7051,12.8501-4.5303,18.0801-8.4805,5.2251-3.9443,9.9697-8.4795,14.2397-13.5996,4.2651-5.1201,8.2651-10.5596,12-16.3203,3.73-5.7598,7.52-11.1992,11.3604-16.3193.4248-.6401,1.0649-1.8101,1.9199-3.52.8501-1.7051,1.8647-3.2002,3.04-4.48,1.1699-1.2803,2.3447-2.1299,3.52-2.5601,1.1699-.4248,2.3999.2148,3.6797,1.9199.6401,1.0703.8003,2.2402.48,3.52-.3198,1.2803-.9097,2.6152-1.7598,4-.855,1.3901-1.71,2.6699-2.5601,3.8398-.855,1.1753-1.6001,2.0801-2.2402,2.7202-5.1196,7.0396-10.5098,14.2397-16.1597,21.6001-5.6553,7.3594-11.6802,14.1895-18.0801,20.4795-6.3999,6.2949-13.4399,11.7354-21.1201,16.3203-7.6797,4.5898-16.1099,7.625-25.2798,9.1201-3.8403.21-7.3101-.4805-10.3999-2.0801-3.0952-1.6006-5.4951-4.4248-7.2002-8.4805-1.9199-4.4795-2.5103-9.1699-1.7603-14.0801.7451-4.9043,2.2402-9.7598,4.4805-14.5596,2.2397-4.7998,4.7998-9.4404,7.6797-13.9199,2.8799-4.4805,5.4902-8.5303,7.8398-12.1597,3.8403-6.1851,7.8403-12.3701,12-18.5601,4.1602-6.1851,8.0503-12.3701,11.6802-18.5601,1.7051-2.3452,3.3599-4.7451,4.96-7.2002,1.6001-2.4497,3.04-4.96,4.3203-7.52,1.0649-1.7051,1.8647-3.8398,2.3999-6.3999.5298-2.5601-.1602-4.48-2.0801-5.7598-1.71-1.0654-3.5752-1.1704-5.6001-.3203-2.0298.855-3.895,1.6001-5.6001,2.2402-7.2549,3.1997-13.71,7.8398-19.3599,13.9199-5.6548,6.0801-10.9351,12-15.8398,17.7598-2.1353,2.3501-4.0552,4.75-5.7603,7.2002-1.71,2.4551-3.415,4.96-5.1201,7.52-7.4697,11.52-14.9897,22.9893-22.5596,34.3994-7.5752,11.415-15.0952,22.8799-22.5601,34.4004-.4302,1.0703-1.1201,2.4551-2.0801,4.1602-.96,1.71-1.8701,2.9893-2.7202,3.8398-1.0698.8496-2.7749,1.1201-5.1196.7998-2.3452-.3203-4.0503-.3701-5.1201-.1602h-13.9199c-3.0903,0-5.0103-.4795-5.7603-1.4395-.7451-.96-.48-2.7207.8003-5.2803,1.2798-2.5596,3.4146-6.4004,6.3999-11.5205,9.6001-15.1445,19.04-30.1846,28.3198-45.1191,9.2803-14.9302,18.5049-30.0801,27.6802-45.4399,1.0649-1.9204,2.1851-3.8403,3.3599-5.7603,1.1699-1.9199,2.29-3.9448,3.3599-6.0801Z"/>
  <path d="M490.363,244.5369c.6401,4.9102,2.3447,8.1602,5.1201,9.7598,2.77,1.5996,6.0249,2.1904,9.7598,1.7598,3.73-.4248,7.52-1.4893,11.3599-3.1992,3.8403-1.7051,7.04-3.4102,9.6001-5.1201,5.9702-3.625,12-8.3701,18.0801-14.2402,6.0801-5.8652,11.7852-11.8398,17.1201-17.9199,5.3301-6.0801,10.1299-11.7852,14.3999-17.1201,4.2651-5.3296,7.6802-9.3848,10.2397-12.1597,1.4902-1.7051,2.5054-2.0801,3.04-1.1201.5303.96.585,2.2949.1602,4-1.0698,3.2002-3.2002,7.0947-6.3999,11.6802-3.2002,4.5898-7.04,9.4399-11.52,14.5596-4.48,5.1201-9.335,10.3496-14.5601,15.6797-5.23,5.335-10.3999,10.2402-15.52,14.7207-5.1201,4.4795-9.8701,8.4297-14.2397,11.8398-4.375,3.415-7.9502,5.8701-10.7202,7.3594-4.0552,2.3506-8.6948,4.2158-13.9199,5.6006-5.23,1.3848-10.3501,1.9697-15.3599,1.7598-5.0151-.2148-9.7104-1.4951-14.0801-3.8398-4.375-2.3447-7.8403-6.0801-10.3999-11.2002-2.1304-4.4795-3.25-9.2803-3.3604-14.4004-.105-5.1191.4302-10.2393,1.6001-15.3594,1.1748-5.1201,2.7749-10.0801,4.7998-14.8799,2.0303-4.8003,4.2104-9.3301,6.5601-13.6001,6.1851-11.9448,13.7603-22.6099,22.7202-32,8.96-9.3848,19.1997-17.4897,30.7197-24.3198,5.5454-3.625,11.3604-6.6104,17.4404-8.96,6.0796-2.3452,12.3198-4.0503,18.7197-5.1201,4.0503-.8501,8.4253-1.0649,13.1201-.6401,4.6899.4302,8.21,2.6699,10.5601,6.7202,1.9199,2.9897,2.77,6.1348,2.5601,9.4399-.2153,3.3101-.96,6.5601-2.2402,9.7598-1.2798,3.2002-2.9351,6.1899-4.96,8.96-2.0298,2.7754-4.1099,5.23-6.2397,7.3604-5.1201,5.5498-10.9351,10.3496-17.4404,14.3999-6.5098,4.0552-13.0698,7.5747-19.6797,10.5601-3.6299,1.4951-7.2002,2.8301-10.7202,4-3.52,1.1748-7.1997,2.2949-11.04,3.3599-2.1348.4302-4.6948.75-7.6797.96-2.9902.2148-5.23,1.1753-6.7202,2.8799-1.71,1.71-3.04,4.27-4,7.6797-.96,3.415-1.9751,6.2949-3.04,8.6406-1.4951,3.415-2.6147,6.9893-3.3599,10.7197-.75,3.7354-.9102,7.415-.48,11.04ZM506.0427,196.5369c7.4653-.4248,14.2402-2.77,20.3203-7.04,6.0801-4.2646,11.8901-8.8501,17.4399-13.7598,2.77-2.3452,5.3848-4.8501,7.8398-7.52,2.4502-2.665,4.6401-5.4902,6.5601-8.48,1.2803-2.3452,2.77-5.2803,4.48-8.8003,1.7051-3.52,2.4502-6.665,2.2402-9.4399-.2153-2.3447-.96-3.73-2.2402-4.1597-1.2798-.4253-2.8799-.2651-4.7998.48-1.9199.75-4,1.9199-6.2402,3.52-2.2397,1.5996-4.3198,3.2549-6.2397,4.96-1.9199,1.71-3.6299,3.3599-5.1201,4.96-1.4951,1.6001-2.4551,2.6147-2.8799,3.04-6.1899,6.3999-11.79,13.1748-16.8003,20.3198-5.0146,7.1499-9.8696,14.4551-14.5601,21.9199Z"/>
  <path d="M704.4431,40.6971c-8.5352,15.79-17.3906,31.4697-26.5605,47.04-9.1748,15.5747-18.3994,31.2549-27.6797,47.04-9.2798,15.79-18.5098,31.6299-27.6802,47.52-9.1748,15.895-17.9199,32.0542-26.2397,48.48-1.0703,1.71-2.3501,4.1592-3.8398,7.3594-1.4951,3.2002-2.0303,6.1904-1.6001,8.96,0,1.9199.96,3.3604,2.8799,4.3203s4.585.6953,8-.7998c5.7598-3.4102,11.04-7.4648,15.8398-12.1602,4.8003-4.6904,9.2803-9.6504,13.4399-14.8799,4.1602-5.2256,8.0503-10.7197,11.6802-16.48,3.6255-5.7598,7.145-11.4102,10.5601-16.96.4248-1.0649,1.4404-2.77,3.04-5.1201,1.5996-2.3447,3.1445-3.52,4.6396-3.52,1.0654,0,1.7051.48,1.9199,1.4399.21.96.21,2.0303,0,3.2002-.2148,1.1748-.5898,2.2949-1.1201,3.3599-.5342,1.0703-.9092,1.8149-1.1191,2.2402-5.5508,7.2549-11.04,15.0947-16.4805,23.5195-5.4399,8.4297-11.3599,16.4805-17.7598,24.1602-6.4004,7.6797-13.4399,14.4004-21.1201,20.1602s-16.3198,9.5996-25.9199,11.5195c-7.6802.4248-12.9102-1.4395-15.6802-5.5996s-4.1602-9.2256-4.1602-15.2002c0-5.9697.9604-12.1045,2.8804-18.4004,1.9199-6.2891,3.8398-11.3594,5.7598-15.1992,6.3999-13.2251,13.4902-26.0249,21.2803-38.3999,7.7847-12.3701,15.4097-24.96,22.8799-37.7603,8.96-14.9297,17.8101-29.8101,26.5601-44.6401,8.7446-14.8247,17.4897-29.8096,26.2397-44.96.8506-1.4897,1.5449-2.9297,2.0801-4.3198.5303-1.3848.9053-2.8252,1.1201-4.3198v-4.1602c0-1.7051.1045-3.0898.3203-4.1602.8496-.21,2.8242-.5298,5.9199-.96,3.0898-.4248,6.5049-.8501,10.2393-1.2798,3.7305-.4253,7.25-.8501,10.5605-1.2803,3.3047-.4248,5.7051-.6396,7.2002-.6396,1.7051.6396,2.5049,2.3496,2.3994,5.1196-.1094,2.7754-.2695,4.6953-.4795,5.7603Z"/>
  <path d="M681.3972,145.0169c6.8252-4.2646,14.0254-8.0498,21.6006-11.3599,7.5693-3.3052,15.5195-5.1699,23.8398-5.6001,7.4648-.4248,14.4502.855,20.96,3.8398,6.5049,2.9902,11.25,7.6802,14.2402,14.0801,1.4893,4.0552,2.2393,8.75,2.2393,14.0801,0,5.335-.5898,10.2949-1.7598,14.8799-1.1748,4.5903-2.3994,8.9102-3.6797,12.96-2.5605,6.1904-5.8154,12.6401-9.7598,19.3604-3.9502,6.7192-8.2705,13.1743-12.96,19.3599-4.2705,5.1201-8.96,10.1348-14.0801,15.04-5.1201,4.9102-10.6152,9.4395-16.4805,13.5996-5.8701,4.1602-12.1094,7.6797-18.7197,10.5605-6.6152,2.8799-13.5498,4.7441-20.7998,5.5996-7.04.8496-14.1357.1045-21.2803-2.2402-7.1499-2.3447-12.8501-6.0801-17.1201-11.2002-4.9048-7.25-7.3599-14.7197-7.3599-22.3994,0-2.7705.27-5.8105.7998-9.1201.5352-3.3047,1.23-6.4502,2.0801-9.4404,4.6948-14.0796,12.21-27.3594,22.5601-39.8394,10.3447-12.48,22.1299-23.2002,35.3604-32.1602h.3193ZM651.9577,237.1766c-.4307,1.9199-.7998,3.7354-1.1201,5.4404-.3203,1.71-.4805,2.7744-.4805,3.2002,0,2.7744.585,5.1748,1.7607,7.1992,1.1699,2.0303,3.5693,3.8955,7.1992,5.6006,3.625,1.0693,7.4658.6396,11.5205-1.2803,4.0498-1.9199,7.6797-3.8398,10.8799-5.7598-.2148,0,0-.21.6396-.6406.6406-.4248,1.1699-.6396,1.6006-.6396,7.04-5.9697,13.5449-12.7451,19.5195-20.3203,5.9707-7.5693,11.3604-15.3594,16.1602-23.3594s8.9053-16,12.3203-24c3.4102-8,6.0801-15.52,8-22.5601.4248-1.0649.7451-2.3447.96-3.8398.21-1.4902.3193-3.0898.3193-4.8003,0-2.9849-.4795-5.7598-1.4395-8.3198s-2.8301-4.1602-5.5996-4.7998c-3.415-.4253-6.9902.3198-10.7207,2.2397-3.7344,1.9199-6.8799,3.8403-9.4395,5.7603-7.4707,5.5498-14.6699,12.0547-21.6006,19.52-6.9346,7.4697-13.1748,15.2549-18.7197,23.3599-5.5498,8.1099-10.2402,16.2148-14.0801,24.3198-3.8398,8.1104-6.4004,15.5752-7.6797,22.3994v1.2803Z"/>
  <path d="M888.1169,147.577c1.2793,7.2549,1.2793,14.6152,0,22.0801-1.2803,7.4702-3.6309,14.8301-7.04,22.0801-3.6309,8.96-8.3203,17.4399-14.0801,25.4395-5.7607,8-11.6299,15.0947-17.6006,21.2803-4.9102,5.335-10.4551,10.0801-16.6396,14.2402-6.1904,4.1602-12.7998,7.6299-19.8398,10.3994-6.8301,2.9902-14.1348,5.0703-21.9199,6.2402-7.79,1.1699-15.0957-.0498-21.9199-3.6797-3.6309-2.3457-6.1904-3.9453-7.6807-4.7998-1.4951-.8506-3.5195.4297-6.0801,3.8398-5.335,7.6797-11.5195,16-18.5596,24.959-7.04,8.9609-14.7197,17.7617-23.04,26.4004-8.3203,8.6406-17.2246,16.5859-26.7197,23.8398-9.4902,7.25-19.3057,13.0098-29.4404,17.2812-10.1299,4.2637-20.4248,6.5586-30.8799,6.8789-10.4502.3203-20.9048-2.2949-31.3599-7.8398-2.3452-1.2793-4.21-3.2539-5.6001-5.9199-1.3853-2.6699-2.29-5.6543-2.7202-8.959-.4248-3.3105-.3696-6.6152.1602-9.9199.5352-3.3105,1.6548-6.1367,3.3599-8.4805,1.9199-2.5605,4.3203-4.2695,7.2002-5.1211,2.8799-.8535,5.71-.959,8.48-.3184,2.7749.6387,5.1748,2.0234,7.2002,4.1582,2.0298,2.1309,2.9346,5.0117,2.7197,8.6406,0,1.4902-.4248,2.8262-1.2798,4-.8501,1.1699-1.6504,2.4004-2.4004,3.6797-.7446,1.2812-1.3296,2.6113-1.7598,4-.4248,1.3848-.3198,2.8262.3198,4.3203,1.0703,2.3457,2.9351,3.9453,5.6001,4.8008,2.6699.8496,5.1753,1.3848,7.52,1.5996,7.2549.6406,14.0801-.4297,20.48-3.1992,6.4004-2.7754,12.4297-6.4551,18.0801-11.041,5.6553-4.5898,10.8799-9.6543,15.6797-15.1992,4.8008-5.5508,9.2305-10.8809,13.2803-16,4.9102-6.1914,9.71-12.6406,14.4004-19.3613,4.6943-6.7197,9.3896-13.2793,14.0801-19.6797,4.2695-6.6094,8.4795-13.0645,12.6396-19.3594,4.1602-6.29,8.1602-12.9609,12-20,3.8398-6.8252,7.8896-13.8105,12.1602-20.9604,4.2646-7.1445,8.5293-14.2397,12.7998-21.2798,3.625-6.6099,7.6797-13.4399,12.1602-20.48,4.4795-7.04,8.21-14.0801,11.2002-21.1201,1.0645-2.1299,1.7051-4.21,1.9199-6.2397.21-2.0249.5293-4.5303.96-7.52.4248,0,1.8096-.0503,4.1602-.1602,2.3447-.105,5.0098-.2651,8-.48,2.9844-.21,6.0791-.3701,9.2793-.48,3.2002-.105,5.9707-.1602,8.3203-.1602.6396,1.0703,1.0098,1.9199,1.1201,2.5601.1045.6401.1602,1.2803.1602,1.9199.4248,2.7754.21,5.71-.6406,8.8003-.8545,3.0947-1.8145,5.9199-2.8799,8.48,5.3301-4.48,10.9307-9.0649,16.7998-13.7603,5.8652-4.6899,12.4258-7.8896,19.6807-9.5996,6.8252-1.0654,12.7998.1597,17.9199,3.6797s8.5303,8.6953,10.2402,15.52ZM812.9167,243.2566c1.0645-1.2803,3.6797-4.7451,7.8398-10.3994,4.1602-5.6504,8.7998-12.3203,13.9199-20,5.1201-7.6802,10.0801-15.8403,14.8799-24.48,4.7998-8.6401,8.4805-16.4805,11.04-23.52,2.5605-7.04,3.3604-12.8003,2.4004-17.2803s-4.75-6.3999-11.3604-5.7598c-3.2002.4297-6.2402,1.4946-9.1201,3.1997-2.8799,1.71-5.6553,3.7354-8.3203,6.0801-2.6699,2.3501-5.1748,4.855-7.5195,7.52-2.3496,2.6699-4.4805,5.0698-6.4004,7.2002-9.3896,11.0947-17.71,22.7197-24.96,34.8799-3.6299,5.9751-7.415,12-11.3594,18.0801-3.9502,6.0801-7.415,12.3193-10.4004,18.7197-1.9199,4.2695-2.6699,8.6953-2.2402,13.2803.4258,4.5898,3.4102,7.6299,8.96,9.1191,3.2002.8555,6.29.9102,9.2803.1602,2.9854-.7451,5.8652-2.0244,8.6396-3.8398,2.7705-1.8096,5.4404-3.8896,8-6.2402,2.5605-2.3447,4.8008-4.585,6.7207-6.7197Z"/>
  <path d="M903.156,244.5369c.6396,4.9102,2.3447,8.1602,5.1201,9.7598,2.7695,1.5996,6.0244,2.1904,9.7598,1.7598,3.7305-.4248,7.5205-1.4893,11.3604-3.1992,3.8398-1.7051,7.04-3.4102,9.5996-5.1201,5.9697-3.625,12-8.3701,18.0801-14.2402,6.0801-5.8652,11.7852-11.8398,17.1201-17.9199,5.3301-6.0801,10.1299-11.7852,14.3994-17.1201,4.2656-5.3296,7.6807-9.3848,10.2402-12.1597,1.4902-1.7051,2.5049-2.0801,3.04-1.1201.5303.96.585,2.2949.1602,4-1.0703,3.2002-3.2002,7.0947-6.4004,11.6802-3.1992,4.5898-7.04,9.4399-11.5195,14.5596-4.4805,5.1201-9.335,10.3496-14.5596,15.6797-5.2305,5.335-10.4004,10.2402-15.5205,14.7207-5.1201,4.4795-9.8701,8.4297-14.2402,11.8398-4.375,3.415-7.9502,5.8701-10.7197,7.3594-4.0547,2.3506-8.6953,4.2158-13.9199,5.6006-5.2305,1.3848-10.3496,1.9697-15.3604,1.7598-5.0146-.2148-9.71-1.4951-14.0801-3.8398-4.375-2.3447-7.8398-6.0801-10.3994-11.2002-2.1299-4.4795-3.25-9.2803-3.3604-14.4004-.1045-5.1191.4297-10.2393,1.6006-15.3594,1.1748-5.1201,2.7744-10.0801,4.7998-14.8799,2.0293-4.8003,4.21-9.3301,6.5596-13.6001,6.1855-11.9448,13.7598-22.6099,22.7197-32,8.96-9.3848,19.2002-17.4897,30.7207-24.3198,5.5449-3.625,11.3594-6.6104,17.4395-8.96,6.0801-2.3452,12.3203-4.0503,18.7207-5.1201,4.0498-.8501,8.4248-1.0649,13.1191-.6401,4.6904.4302,8.21,2.6699,10.5605,6.7202,1.9199,2.9897,2.7695,6.1348,2.5596,9.4399-.2148,3.3101-.96,6.5601-2.2393,9.7598-1.2803,3.2002-2.9355,6.1899-4.96,8.96-2.0303,2.7754-4.1104,5.23-6.2402,7.3604-5.1201,5.5498-10.9355,10.3496-17.4404,14.3999-6.5098,4.0552-13.0693,7.5747-19.6797,10.5601-3.6299,1.4951-7.2002,2.8301-10.7197,4-3.5205,1.1748-7.2002,2.2949-11.04,3.3599-2.1357.4302-4.6953.75-7.6807.96-2.9893.2148-5.2295,1.1753-6.7197,2.8799-1.71,1.71-3.04,4.27-4,7.6797-.96,3.415-1.9746,6.2949-3.04,8.6406-1.4951,3.415-2.6152,6.9893-3.3604,10.7197-.75,3.7354-.9092,7.415-.4795,11.04ZM918.8356,196.5369c7.4648-.4248,14.2402-2.77,20.3203-7.04,6.0801-4.2646,11.8896-8.8501,17.4395-13.7598,2.7705-2.3452,5.3857-4.8501,7.8408-7.52,2.4492-2.665,4.6396-5.4902,6.5596-8.48,1.2803-2.3452,2.7705-5.2803,4.4805-8.8003,1.7051-3.52,2.4492-6.665,2.2393-9.4399-.2148-2.3447-.96-3.73-2.2393-4.1597-1.2803-.4253-2.8809-.2651-4.8008.48-1.9199.75-4,1.9199-6.2393,3.52-2.2402,1.5996-4.3203,3.2549-6.2402,4.96-1.9199,1.71-3.6299,3.3599-5.1201,4.96-1.4951,1.6001-2.4551,2.6147-2.8799,3.04-6.1904,6.3999-11.79,13.1748-16.7998,20.3198-5.0156,7.1499-9.8701,14.4551-14.5605,21.9199Z"/>
  <path d="M1211.9558,241.3367c-3.8408,3.415-7.79,6.8301-11.8408,10.2402-4.0547,3.415-8.2695,6.5596-12.6396,9.4395-4.375,2.8799-8.96,5.2803-13.7598,7.2002s-9.8701,3.0898-15.2002,3.5205c-7.4697,1.0645-14.0801,0-19.8398-3.2002s-9.4951-8.7451-11.2002-16.6406c-1.9199-8.7441-1.9199-17.3848,0-25.9199,1.9199-8.5293,4.7998-16.8491,8.6396-24.9595,3.8408-8.105,8.21-15.8896,13.1201-23.3599,4.9053-7.4648,9.6006-14.6099,14.0801-21.4399,6.8252-10.2402,13.7598-20.2651,20.7998-30.0801,7.04-9.8101,13.8652-19.625,20.4805-29.4399,3.2002-4.6899,6.3994-9.5449,9.5996-14.5601,3.2002-5.0098,6.2402-10.1299,9.1201-15.3599,2.8799-5.2251,5.3848-10.5601,7.5205-16,2.1299-5.4399,3.625-10.9302,4.4795-16.48.8506-4.48.6904-8.96-.4795-13.4399-1.1758-4.48-4.2158-7.5703-9.1201-9.2803-4.0557-1.7051-8.4307-2.3447-13.1201-1.9199-4.6953.4302-9.3896,1.1748-14.0801,2.2397-11.0947,3.2002-21.1748,7.895-30.2402,14.0801-9.0693,6.1899-17.6553,13.7603-25.7598,22.7202-8.3203,9.3901-16.0547,18.8301-23.2002,28.3198-7.1494,9.4951-13.2803,20.3203-18.3994,32.48-1.71,3.6304-3.5205,8.2153-5.4404,13.7603-1.9199,5.5498-3.0947,11.0947-3.5195,16.6396-.4307,5.5503.2646,10.6704,2.0791,15.3604,1.8105,4.6948,5.6006,7.895,11.3604,9.6001,4.2646,1.0698,8.7451,1.4399,13.4404,1.1196,4.6895-.3198,8.8496-1.3301,12.4795-3.04,3.625-1.7046,6.665-3.73,9.1201-6.0796,2.4502-2.3452,5.1699-4.5854,8.1602-6.7202,3.4102-2.1299,5.4902-2.3999,6.2402-.7998.7451,1.5996.2646,3.895-1.4404,6.8799-2.5596,3.415-5.5498,6.7749-8.96,10.0801-3.415,3.3101-6.7197,6.2397-9.9199,8.7998-6.4004,6.1899-13.8154,10.6699-22.2402,13.4399-8.4297,2.7749-17.1201,2.5601-26.0801-.6401-4.6943-1.7046-8.6396-4.2646-11.8398-7.6797-3.2002-3.4102-5.71-7.25-7.5195-11.52-1.8154-4.2651-2.9902-8.8003-3.5205-13.6001-.5352-4.7998-.4795-9.4399.1602-13.9199,1.0654-10.2402,3.8398-20.105,8.3203-29.6001,4.4795-9.4897,9.5996-18.6099,15.3594-27.3599,5.9707-8.96,12.585-17.4399,19.8398-25.4399,7.25-8,15.3604-15.4102,24.3203-22.2402,8.7451-6.1851,17.9199-12.1597,27.5205-17.9199,9.5996-5.7598,19.5195-10.2397,29.7598-13.4399,4.2646-1.2803,9.0645-2.3999,14.3994-3.3599,5.3301-.96,10.7705-1.5454,16.3203-1.7603,5.5449-.21,10.8799.1602,16,1.1201s9.6006,2.8301,13.4404,5.6001c4.6895,3.415,8.1602,7.52,10.3994,12.3198,2.2402,4.7998,3.625,9.8701,4.1602,15.2002.5303,5.335.3701,10.7749-.4795,16.3198-.8555,5.5498-2.0303,10.8799-3.5205,16-3.8398,11.0952-8.7998,21.6548-14.8799,31.6802-6.0801,10.0298-12.3203,19.8398-18.7197,29.4399-6.8301,10.6699-13.9199,21.0698-21.2803,31.1997-7.3604,10.1353-14.1348,20.5352-20.3203,31.2002-2.7744,4.6948-5.4951,9.5498-8.1592,14.5601-2.6709,5.0151-5.1758,9.9746-7.5205,14.8799-1.0703,2.1348-1.9746,4.4297-2.7197,6.8799-.75,2.4551-1.2305,4.9102-1.4404,7.3604-.2148,2.4541,0,4.7998.6406,7.04.6396,2.2393,1.9199,4.3193,3.8398,6.2393,3.625,3.2002,7.7852,4.2148,12.4795,3.04,4.6904-1.1699,9.3848-3.3047,14.0801-6.3994,4.6904-3.0908,9.0098-6.5605,12.96-10.4004,3.9453-3.8398,7.0898-7.04,9.4404-9.5996,8.1045-8.5303,16-17.3301,23.6797-26.3999,7.6797-9.0654,15.1455-18.4004,22.4004-28,15.3594-20.9053,29.6494-42.1851,42.8799-63.8403,13.2246-21.6499,26.2402-43.7847,39.04-66.3999,3.625-6.3999,6.3447-10.9849,8.1602-13.7598,1.8096-2.77,3.7842-4.6401,5.9199-5.6001,2.1299-.96,4.7998-1.3853,8-1.2803,3.1992.1104,8-.0498,14.3994-.48,7.25-.6396,11.5703.1104,12.96,2.2402,1.3857,2.1348,1.2256,5.0151-.4795,8.6401-1.71,3.6299-4.2705,7.6299-7.6807,12-3.4141,4.375-6.0791,8.48-8,12.3198-12.375,22.8301-25.5498,45.0698-39.5195,66.7197-13.9746,21.6553-27.79,43.5752-41.4404,65.7603-6.3994,10.6699-12.6943,21.4399-18.8799,32.3193-6.1895,10.8809-12.4795,21.6553-18.8799,32.3203-6.3994,10.6699-13.1201,21.1699-20.1602,31.5205-7.04,10.3447-14.5098,20.21-22.3994,29.6006-7.04,8.7441-14.8799,16.8496-23.5205,24.3184-8.6396,7.4668-17.7598,14.0254-27.3594,19.6816-9.6006,5.6484-19.6807,10.2383-30.2402,13.7598-10.5605,3.5195-21.3896,5.5996-32.4805,6.2402-4.9092.4238-10.0293.584-15.3594.4785-5.335-.1094-10.6699-.6934-16-1.7598-5.335-1.0703-10.2949-2.7754-14.8799-5.1191-4.585-2.3496-8.4805-5.5508-11.6807-9.5996-2.9844-3.8398-4.96-8.1113-5.9199-12.8008-.96-4.6953-.96-9.3359,0-13.9199.96-4.5898,2.7754-8.8008,5.4404-12.6406,2.6699-3.8398,6.2402-6.8301,10.7197-8.959,4.4805-2.1348,8.7451-2.5605,12.7998-1.2812,4.0498,1.2812,7.3057,3.5215,9.7598,6.7207,2.4502,3.1992,3.7852,6.9297,4,11.1992.2109,4.2656-1.2793,8.3203-4.4795,12.1602-1.2803,1.7051-2.6699,3.3613-4.1602,4.9609-1.4951,1.5996-2.2402,3.5703-2.2402,5.9199,0,2.5605.9053,4.8496,2.7207,6.8789,1.8096,2.0254,3.8896,3.6816,6.2393,4.9609,4.4805,2.3457,9.2803,3.4102,14.4004,3.1992,5.1201-.2148,10.1299-.8535,15.04-1.9199,11.0898-2.7734,21.1699-7.3594,30.2402-13.7598,9.0645-6.4004,17.3848-13.8145,24.96-22.2402,7.5693-8.4297,14.4502-17.3887,20.6396-26.8789,6.1855-9.4961,12.1602-18.8311,17.9199-28.001,6.8252-10.8799,13.6504-21.7051,20.4805-32.4795,6.8252-10.7705,13.5449-21.6006,20.1602-32.48-5.1201,5.9751-10.4004,11.6294-15.8408,16.9595-5.4395,5.335-11.1494,10.7754-17.1191,16.3203Z"/>
  <path d="M1426.9909,130.9368h32c-8.96,15.79-17.71,31.5752-26.2402,47.3604-8.5342,15.79-17.5996,31.1499-27.1992,46.0796-.8555,1.2803-2.1904,3.8398-4,7.6797-1.8154,3.8398-3.2002,7.6807-4.1602,11.5205s-1.0703,7.04-.3203,9.5996c.7451,2.5605,3.25,3.2002,7.5205,1.9199,5.9697-3.4102,11.25-7.5693,15.8398-12.4795,4.585-4.9053,8.8496-10.1855,12.7998-15.8398,3.9453-5.6504,7.8398-11.3057,11.6797-16.96,3.8398-5.6504,8-10.9302,12.4805-15.8403,1.7051-1.7051,3.0898-2.3447,4.1602-1.9199,1.0645.4302,1.8096.855,2.2393,1.2803,0,.2148-.5342,1.1748-1.5996,2.8799-5.7598,6.8301-11.2002,14.1899-16.3203,22.0796-5.1201,7.8955-10.6143,15.4697-16.4795,22.7197-5.8701,7.2549-12.3203,13.6553-19.3604,19.2002-7.04,5.5498-15.2549,9.3906-24.6396,11.5205-4.9102.21-8.5352-.8555-10.8799-3.2002-2.3506-2.3447-3.9502-5.3301-4.8008-8.96-.8545-3.625-1.2295-7.4648-1.1191-11.5205.1045-4.0498.3691-7.7852.7998-11.1992-2.3506,2.5596-5.3906,5.71-9.1201,9.4395-3.7354,3.7354-7.8398,7.5205-12.3203,11.3604-4.4795,3.8398-9.1201,7.3096-13.9199,10.3994s-9.4951,5.1201-14.0801,6.0801c-4.5898.96-8.8545.5303-12.7998-1.2793-3.9502-1.8154-7.2002-5.7051-9.7598-11.6807-2.5605-5.9697-3.7305-12-3.5205-18.0801.2148-6.0801,1.2803-12.1045,3.2002-18.0801,1.9199-5.9697,4.4297-11.7295,7.5205-17.2793,3.0898-5.5449,6.2393-10.77,9.4395-15.6802,7.04-10.665,15.2002-20.3701,24.4805-29.1201,9.2793-8.7446,19.4648-16.21,30.5596-22.3999,3.8398-2.1299,8.2646-4.21,13.2803-6.2397,5.0098-2.0254,9.9199-3.25,14.7197-3.6802,4.7998-.4248,9.2246.3198,13.2803,2.2402,4.0498,1.9199,7.1445,5.7598,9.2803,11.52,1.2793-2.3452,2.5596-4.5854,3.8398-6.7202,1.2793-2.1299,2.4492-4.3701,3.5195-6.7202ZM1384.7507,203.8968c.6406-1.2798,2.1855-3.73,4.6406-7.3599,2.4502-3.625,5.0645-7.7847,7.8398-12.48,2.7695-4.6899,5.3848-9.7051,7.8398-15.04,2.4502-5.3301,4.1602-10.2397,5.1201-14.7197s.9053-8.21-.1602-11.2002c-1.0703-2.9849-3.9502-4.6899-8.6396-5.1201-3.415.6401-6.7754,1.9751-10.0801,4-3.3105,2.0303-6.5605,4.48-9.7598,7.3604-3.2002,2.8799-6.1904,5.8696-8.96,8.96-2.7754,3.0947-5.4404,6.0298-8,8.7998-5.1201,6.8301-10.1357,13.8701-15.04,21.1201-4.9102,7.2549-9.4951,14.6147-13.7607,22.0801-1.2793,2.3491-2.8799,5.2798-4.7998,8.7993-1.9199,3.5205-3.6299,7.2002-5.1201,11.04-1.4951,3.8398-2.5098,7.6299-3.04,11.3604-.5352,3.7354.0508,6.9902,1.7607,9.7598,1.4893,2.7754,3.4648,4.375,5.9199,4.7998,2.4492.4307,4.96.2148,7.5195-.6396,2.5605-.8496,5.0654-2.0801,7.5205-3.6797,2.4492-1.6006,4.4248-3.1455,5.9199-4.6406,6.6094-6.1846,12.6895-12.9043,18.2393-20.1602,5.5459-7.25,10.5605-14.9297,15.04-23.0396Z"/>
  <path d="M1481.0681,149.4969c1.7051-2.3447,2.5605-4.6899,2.5605-7.04,0-2.3447.1045-4.9048.3193-7.6797.21-2.3452.2656-3.6802.1602-4-.1104-.3203.6904-.48,2.4004-.48,1.4893,0,3.9443-.105,7.3594-.3203,3.4102-.21,6.8799-.3696,10.4004-.48,3.5195-.105,6.6104-.21,9.2803-.3198,2.665-.105,3.8896-.1602,3.6797-.1602.4248.6401.9053,1.6001,1.4404,2.8799.5293,1.2803.7998,2.5601.7998,3.8403-.4307,2.9897-1.4404,6.0801-3.04,9.2798-1.6006,3.2002-3.04,6.2949-4.3203,9.2803,4.2646-3.625,8.5303-7.145,12.7998-10.5601,4.2656-3.4102,8.8506-6.3999,13.7607-8.96,2.1299-1.2803,4.585-2.4502,7.3594-3.52,2.7705-1.0649,5.6504-1.8101,8.6406-2.2402,2.9844-.4248,5.9697-.585,8.96-.48,2.9844.1099,5.7598.6953,8.3193,1.7603,5.7607,2.7749,8.9053,6.9351,9.4404,12.48.5303,5.5498.1602,10.9897-1.1201,16.3198-2.3496,7.4702-6.0801,14.6699-11.2002,21.6001-5.1201,6.9351-9.8145,13.6001-14.0801,20-3.8398,5.7598-7.5752,11.5195-11.2002,17.2793-3.6299,5.7607-7.1494,11.7354-10.5596,17.9199-.6396,1.2803-1.5996,3.04-2.8799,5.2803s-2.2402,4.4805-2.8799,6.7197c-.6406,2.2402-.6406,4.1602,0,5.7607.6396,1.5996,2.5596,2.1895,5.7598,1.7598,6.8252-1.7051,12.8496-4.5303,18.0801-8.4805,5.2246-3.9443,9.9697-8.4795,14.2402-13.5996,4.2646-5.1201,8.2646-10.5596,12-16.3203,3.7295-5.7598,7.5195-11.1992,11.3594-16.3193.4258-.6401,1.0654-1.8101,1.9199-3.52.8506-1.7051,1.8652-3.2002,3.04-4.48,1.1699-1.2803,2.3457-2.1299,3.5205-2.5601,1.1699-.4248,2.3994.2148,3.6797,1.9199.6406,1.0703.7998,2.2402.4805,3.52-.3203,1.2803-.9102,2.6152-1.7607,4-.8545,1.3901-1.71,2.6699-2.5596,3.8398-.8555,1.1753-1.5996,2.0801-2.2402,2.7202-5.1201,7.0396-10.5098,14.2397-16.1602,21.6001-5.6543,7.3594-11.6797,14.1895-18.0801,20.4795-6.3994,6.2949-13.4395,11.7354-21.1191,16.3203-7.6807,4.5898-16.1104,7.625-25.2803,9.1201-3.8398.21-7.3105-.4805-10.4004-2.0801-3.0947-1.6006-5.4951-4.4248-7.2002-8.4805-1.9199-4.4795-2.5098-9.1699-1.7598-14.0801.7451-4.9043,2.2402-9.7598,4.4805-14.5596s4.7998-9.4404,7.6797-13.9199c2.8799-4.4805,5.4902-8.5303,7.8398-12.1597,3.8398-6.1851,7.8398-12.3701,12-18.5601,4.1602-6.1851,8.0498-12.3701,11.6807-18.5601,1.7041-2.3452,3.3594-4.7451,4.96-7.2002,1.5996-2.4497,3.04-4.96,4.3193-7.52,1.0654-1.7051,1.8652-3.8398,2.4004-6.3999.5303-2.5601-.1602-4.48-2.0801-5.7598-1.71-1.0654-3.5752-1.1704-5.5996-.3203-2.0303.855-3.8955,1.6001-5.6006,2.2402-7.2549,3.1997-13.71,7.8398-19.3594,13.9199-5.6553,6.0801-10.9355,12-15.8408,17.7598-2.1348,2.3501-4.0547,4.75-5.7598,7.2002-1.71,2.4551-3.415,4.96-5.1201,7.52-7.4697,11.52-14.9902,22.9893-22.5596,34.3994-7.5752,11.415-15.0947,22.8799-22.5605,34.4004-.4297,1.0703-1.1201,2.4551-2.0801,4.1602-.96,1.71-1.8691,2.9893-2.7197,3.8398-1.0703.8496-2.7744,1.1201-5.1201.7998-2.3447-.3203-4.0498-.3701-5.1201-.1602h-13.9199c-3.0898,0-5.0098-.4795-5.7598-1.4395-.7451-.96-.4795-2.7207.7998-5.2803,1.2803-2.5596,3.415-6.4004,6.4004-11.5205,9.5996-15.1445,19.04-30.1846,28.3203-45.1191,9.2793-14.9302,18.5049-30.0801,27.6797-45.4399,1.0645-1.9204,2.1846-3.8403,3.3604-5.7603,1.1699-1.9199,2.2891-3.9448,3.3594-6.0801Z"/>
  <path d="M1571.9499,268.8572c-3.6299-2.3457-6.4004-5.2803-8.3203-8.8008-1.9199-3.5195-3.2002-7.25-3.8398-11.1992-.6396-3.9453-.7998-8-.4795-12.1602.3193-4.1602.9043-8.1602,1.7598-12,2.7695-9.6006,6.8799-18.5049,12.3193-26.7202,5.4404-8.21,11.4658-15.9448,18.0801-23.1997,7.04-7.8901,14.5605-15.25,22.5605-22.0801,8-6.8252,16.9053-12.3701,26.7197-16.6401,3.8398-1.7051,8.0498-3.1997,12.6396-4.48,4.585-1.2798,9.0107-1.8647,13.2803-1.7598,4.2656.1099,8.2656,1.1196,12,3.04,3.7305,1.9199,6.665,5.23,8.7998,9.9199,1.2803-1.4902,2.3457-2.9302,3.2002-4.3203.8506-1.3848,1.8105-2.5601,2.8799-3.52,1.0654-.96,2.2402-1.7598,3.5205-2.3999,1.2793-.6401,2.9844-1.0649,5.1201-1.2798,4.6895-.4253,9.2793-.585,13.7598-.48,4.4795.1099,8.8496.1597,13.1201.1597-12.1602,21.5503-24.5352,42.6704-37.1201,63.3604-12.5898,20.6948-25.4951,41.4946-38.7197,62.3999-5.335,8.5352-10.7207,17.1699-16.1602,25.9199-5.4404,8.7441-11.2549,17.2246-17.4404,25.4395-6.1895,8.2109-13.0146,15.7852-20.4795,22.7207-7.4707,6.9297-15.79,12.7441-24.96,17.4395-8.3203,4.2656-17.3301,7.4648-27.04,9.5996-9.7051,2.1309-19.3604,2.9863-28.96,2.5605-2.9854-.2148-6.1855-.5898-9.6006-1.1191-3.4102-.5352-6.665-1.4414-9.7598-2.7207-3.0898-1.2793-5.8652-3.0391-8.3203-5.2793-2.4492-2.2402-4.21-4.9609-5.2793-8.1602-1.2803-4.0547-1.3301-8.1113-.1602-12.1602,1.1748-4.0547,3.5752-7.1504,7.2002-9.2812,3.1992-2.3496,7.04-3.3086,11.5195-2.8789,4.4805.4258,7.5752,2.7695,9.2803,7.0391.6396,1.9199.7998,3.625.4795,5.1211-.3193,1.4902-.9043,2.8789-1.7598,4.1602-.8496,1.2793-1.5996,2.6094-2.2402,4-.6396,1.3848-.96,2.9297-.96,4.6387.2148,2.3457,1.1201,4.2109,2.7207,5.6016,1.5996,1.3848,3.4697,2.3984,5.5996,3.0391,2.1348.6406,4.3203.9609,6.5596.9609s4.2158-.1113,5.9199-.3203c5.5508-.6406,10.7754-2.0801,15.6807-4.3203,4.9102-2.2402,9.5498-5.0703,13.9199-8.4805,4.3701-3.4141,8.4248-7.2539,12.1602-11.5195,3.7295-4.2695,7.1992-8.5352,10.3994-12.8008,7.8906-10.4551,15.1455-21.2793,21.7607-32.4795,6.6094-11.2002,13.0098-22.5596,19.1992-34.0801-3.1992,2.9902-6.8301,6.0801-10.8799,9.2803-4.0547,3.2002-8.2148,5.9199-12.4795,8.1602-4.2705,2.2393-8.75,3.6797-13.4404,4.3193-4.6953.6406-9.2803-.1094-13.7598-2.2393ZM1594.6696,252.5369c5.1201.2148,9.8105-.6904,14.0801-2.7197,4.2646-2.0254,8.21-4.7451,11.8398-8.1602,3.625-3.4102,7.04-7.1455,10.2402-11.2002,3.2002-4.0498,6.0801-7.8896,8.6396-11.5205,3.4102-4.9043,6.9307-9.7593,10.5605-14.5591,3.625-4.8003,7.1445-9.7051,10.5596-14.7202,3.4102-5.0103,6.4502-10.1851,9.1201-15.52,2.665-5.3301,4.8506-10.8799,6.5605-16.6401.4248-1.4897.7998-3.3599,1.1191-5.6001.3203-2.2397.3701-4.3696.1602-6.3999-.2148-2.0249-.8545-3.73-1.9199-5.1196-1.0693-1.3853-2.7744-2.0801-5.1201-2.0801-2.5596-.21-5.1748.27-7.8398,1.4399-2.6699,1.1748-5.2295,2.6147-7.6797,4.3198-2.4551,1.71-4.7998,3.5752-7.04,5.6001-2.2402,2.0298-4.2148,3.895-5.9199,5.6001-8.96,8.96-17.1201,18.5601-24.4805,28.7998-7.3594,10.2402-14.1348,20.9102-20.3193,31.9995-.8555,1.71-2.2402,4.5352-4.1602,8.4805-1.9199,3.9502-3.4707,7.9502-4.6406,12-1.1748,4.0547-1.4941,7.6797-.96,10.8799.5303,3.2002,2.9307,4.9102,7.2002,5.1201Z"/>
</svg>