<?xml version="1.0" encoding="UTF-8"?>
<svg id="Layer_1" data-name="Layer 1" xmlns="http://www.w3.org/2000/svg" viewBox="0 0 1945.2031 822.0844">
  <g>
    <rect x="17.7761" y="59.6996" width="1920" height="312.3077" fill="none"/>
    <path d="M162.856,291.416c-9.124,6.7217-18.6021,12.9033-28.4399,18.54-9.8438,5.6416-19.98,10.3213-30.4199,14.04-10.4404,3.7236-21.1841,6.2998-32.2202,7.7393-11.042,1.4404-22.2017,1.1982-33.48-.7197-9.3599-1.1982-17.584-4.2578-24.6602-9.1797-7.0762-4.916-11.458-12.2969-13.1396-22.1406-.7202-3.8359-.6582-7.9756.1797-12.4199.8438-4.4375,2.4019-8.46,4.6802-12.0596,2.2837-3.5996,5.2817-6.3564,9-8.2803,3.7183-1.918,7.9761-2.2783,12.7798-1.0801,2.8804.7207,5.5181,2.4023,7.9199,5.04,2.3965,2.6436,4.1401,5.6426,5.2202,9,1.0801,3.3643,1.3779,6.6602.8999,9.9004-.4839,3.2402-2.042,5.9395-4.6797,8.0996-3.8423,2.8799-5.7041,5.8838-5.5801,9,.1182,3.1221,1.2598,5.9404,3.4199,8.46,2.1602,2.5205,4.978,4.5625,8.46,6.1201,3.4761,1.5635,6.896,2.3398,10.2598,2.3398,10.5581.2422,20.3403-1.5576,29.3403-5.3994,9-3.8369,17.6963-8.877,26.1001-15.1201,11.998-9.8379,22.5-20.8184,31.5-32.9404,9-12.1162,17.2798-24.7158,24.8398-37.7998,7.5601-13.0781,14.8164-26.46,21.7798-40.1396,6.9585-13.6802,14.3384-26.938,22.1401-39.7798,7.7964-12.8364,16.498-25.1382,26.1001-36.9004,9.5962-11.7559,20.7563-22.1963,33.48-31.3198,4.0781-2.8799,8.2798-5.5801,12.6001-8.1001,4.3198-2.52,8.6396-4.7363,12.96-6.6597,1.4399-.4785,3.2397-1.1362,5.3999-1.98,2.1602-.8384,4.3198-1.5586,6.48-2.1602,2.1602-.5962,4.1963-.8384,6.1201-.7202,1.918.124,3.3579,1.0239,4.3198,2.7002.9565,1.9238,1.2603,3.3638.8999,4.3198-.3599.9619-1.0801,1.6821-2.1597,2.1602-1.0801.4839-2.3403.7817-3.7803.8999-1.4399.124-2.7617.3037-3.96.54-5.5239,1.4399-10.502,3.96-14.9399,7.5601-4.4438,3.6001-8.46,7.8638-12.0601,12.7798-3.6001,4.9219-6.8398,10.0239-9.7197,15.3003-2.8804,5.2817-5.5239,10.2036-7.9204,14.7598-7.9199,14.1641-15.0635,28.8003-21.4199,43.9199-6.3618,15.1201-13.1396,29.9419-20.3398,44.4595-7.2002,14.5244-15.3618,28.3838-24.48,41.5801-9.124,13.2021-20.2837,25.082-33.48,35.6406ZM80.416,176.2158c.7197-12.7178,3.3579-24.5361,7.9199-35.46,4.5562-10.918,10.4961-20.998,17.8198-30.2397,7.3184-9.2363,15.6602-17.7583,25.02-25.5601,9.3599-7.7964,19.0801-14.9399,29.1602-21.4199s20.7563-12.2964,32.04-17.46c11.2778-5.1582,22.8599-9.2363,34.7397-12.2402,11.8804-2.998,23.8784-4.8599,36-5.5801,12.1162-.7197,24.1763,0,36.1802,2.1602,10.0801,1.9238,19.7383,5.04,28.98,9.3599,9.2363,4.3203,17.1001,10.3223,23.5801,18,7.9199,9.124,12.6562,19.4399,14.2197,30.96,1.5581,11.52.9004,22.9219-1.98,34.2002-2.8799,10.564-7.4419,19.8618-13.6797,27.8999-6.2437,8.0439-13.562,14.8218-21.96,20.3403-8.4038,5.5234-17.6401,9.7197-27.7202,12.5996-10.0801,2.8804-20.2837,4.2021-30.6001,3.96-.7197,0-2.4634-.0562-5.2197-.1797-2.7622-.1182-5.5239-.54-8.2803-1.2603-2.7617-.7197-4.9219-1.6763-6.48-2.8799-1.5635-1.1982-1.502-2.8799.1802-5.04,1.1982-1.918,3.2397-2.458,6.1201-1.6201,2.8799.8438,5.1577,1.2603,6.8398,1.2603,3.3579.2417,6.7163.1797,10.0801-.1802,3.3579-.3599,6.5981-1.1362,9.7197-2.3398,9.3604-3.1162,17.2183-8.2803,23.5801-15.48,6.3564-7.2002,11.7002-14.9961,16.02-23.3999,5.04-9.5962,8.2803-19.98,9.7202-31.1401s.1182-21.7803-3.96-31.8599c-4.084-10.3164-10.2041-18-18.3604-23.04-8.1616-5.04-17.5215-8.1562-28.0796-9.3604-11.52-1.1978-23.04-1.1978-34.5601,0-11.52,1.2041-22.8037,3.7241-33.8403,7.5601-10.7998,3.8418-20.6997,8.9438-29.6997,15.3003-9,6.3618-17.9438,13.022-26.8203,19.98-8.1616,6.9639-15.3618,14.5801-21.5996,22.8599-6.2441,8.2798-11.52,17.46-15.8403,27.54-1.6816,4.0835-3.1216,8.8198-4.3198,14.2202-1.2036,5.3999-1.7437,10.7437-1.6201,16.0195.1182,5.2822,1.1362,10.2603,3.0601,14.9404,1.918,4.6797,5.1582,8.3418,9.7202,10.98,3.1162,1.9233,6.7158,3.0601,10.7998,3.4199,4.0781.3599,8.1562.3037,12.2397-.1802,4.0781-.478,8.0386-1.4961,11.8804-3.0601,3.8359-1.5581,7.0762-3.4199,9.7197-5.5801.7202-.478,1.5581-1.2598,2.52-2.3398.9565-1.0801,1.98-2.1602,3.0601-3.2397,1.0801-1.0801,2.1602-1.8564,3.2402-2.3403,1.0796-.478,2.0981-.478,3.0601,0,1.6758,1.2041,2.1597,2.7622,1.4399,4.6802-.7202,1.9238-1.4399,3.4819-2.1602,4.6802-6.002,8.1616-13.7417,14.9399-23.2202,20.3398-9.4834,5.3994-18.7817,9.1797-27.8999,11.3398-5.04,1.2031-10.2036,1.6816-15.48,1.4395-5.2817-.2363-10.2036-1.2598-14.7598-3.0596-4.562-1.7998-8.522-4.5566-11.8804-8.2803-3.3638-3.7178-5.6416-8.4595-6.8398-14.2197-.4839-3.1162-.8438-6.1763-1.0801-9.1797-.2417-2.998-.4834-5.9399-.7197-8.8203Z"/>
    <path d="M292.8179,301.1357c.7202,5.5234,2.6382,9.1797,5.7603,10.9805,3.1162,1.7998,6.7778,2.4629,10.98,1.9795,4.1963-.4785,8.46-1.6758,12.7798-3.5996,4.3203-1.918,7.9199-3.8369,10.8003-5.7607,6.7163-4.0781,13.5-9.416,20.3398-16.0195,6.8398-6.5986,13.2583-13.3203,19.2598-20.1602,5.9966-6.8398,11.3965-13.2578,16.2002-19.2598,4.7983-5.9961,8.6401-10.5586,11.52-13.6797,1.6763-1.9189,2.8184-2.3408,3.4199-1.2607.5962,1.0801.6582,2.582.1802,4.5-1.2036,3.6006-3.6001,7.9824-7.2002,13.1406-3.6001,5.1631-7.9199,10.6201-12.96,16.3799s-10.502,11.6436-16.3799,17.6396c-5.8838,6.002-11.7002,11.5205-17.46,16.5605-5.7603,5.04-11.104,9.4834-16.02,13.3193-4.9219,3.8418-8.9438,6.6045-12.0601,8.2803-4.562,2.6436-9.7817,4.7422-15.6602,6.2998-5.8838,1.5586-11.6436,2.2168-17.2798,1.9805-5.6421-.2422-10.9238-1.6826-15.8398-4.3203-4.9219-2.6377-8.8203-6.8398-11.7002-12.5996-2.3965-5.04-3.6562-10.4404-3.7798-16.2002-.1182-5.7598.4834-11.5205,1.7998-17.2803,1.3218-5.7598,3.1221-11.3398,5.3999-16.7402,2.2837-5.3994,4.7363-10.4961,7.3799-15.2998,6.9585-13.4375,15.48-25.4365,25.5601-36,10.0801-10.5576,21.6001-19.6758,34.5601-27.3594,6.2383-4.0781,12.7803-7.4365,19.6201-10.0801,6.8398-2.6382,13.8599-4.5562,21.0601-5.7603,4.5562-.9561,9.478-1.1982,14.7598-.7197,5.2764.4834,9.2363,3.0034,11.8799,7.5601,2.1602,3.3638,3.1167,6.9019,2.8804,10.6196-.2422,3.7241-1.0801,7.3804-2.52,10.98-1.4399,3.6001-3.3018,6.9639-5.5801,10.0801-2.2837,3.1221-4.624,5.8838-7.02,8.2803-5.7603,6.2432-12.3018,11.6436-19.6201,16.1992-7.3237,4.5625-14.7036,8.5225-22.1401,11.8799-4.0835,1.6826-8.0996,3.1846-12.0596,4.5-3.96,1.3223-8.1001,2.582-12.4204,3.7803-2.4019.4844-5.2817.8438-8.6396,1.0801-3.3638.2422-5.8838,1.3223-7.5601,3.2402-1.9238,1.9238-3.4199,4.8037-4.5,8.6396-1.0801,3.8418-2.2222,7.082-3.4199,9.7207-1.6821,3.8418-2.9419,7.8633-3.7803,12.0596-.8438,4.2021-1.0234,8.3418-.54,12.4199ZM310.458,247.1357c8.3979-.4785,16.02-3.1162,22.8599-7.9199,6.8403-4.7979,13.3765-9.9561,19.6201-15.4805,3.1162-2.6377,6.0581-5.4561,8.8198-8.46,2.7563-2.998,5.2202-6.1758,7.3804-9.54,1.4399-2.6372,3.1162-5.9395,5.04-9.8994,1.918-3.96,2.7559-7.498,2.52-10.6201-.2422-2.6377-1.0801-4.1958-2.52-4.6797-1.4404-.478-3.2402-.2983-5.4004.54-2.1597.8438-4.5,2.1597-7.02,3.96-2.52,1.7998-4.8599,3.6616-7.02,5.5801-2.1597,1.9233-4.0835,3.7798-5.7598,5.5796-1.6816,1.8003-2.7617,2.9419-3.2402,3.4204-6.9634,7.1992-13.2637,14.8213-18.8999,22.8594-5.6416,8.0439-11.1035,16.2617-16.3799,24.6602Z"/>
    <path d="M421.3389,194.2158c1.9185-2.6377,2.8804-5.2759,2.8804-7.9199,0-2.6382.1182-5.5181.3599-8.6396.2363-2.6382.2979-4.1401.1802-4.5-.124-.3604.7759-.54,2.6997-.54,1.6763,0,4.438-.1182,8.2803-.3604,3.8359-.2358,7.7397-.416,11.6997-.54,3.96-.1177,7.4365-.2358,10.4399-.3599,2.998-.1182,4.3765-.1797,4.1401-.1797.478.7197,1.0181,1.7998,1.6201,3.2397.5962,1.4399.8999,2.8799.8999,4.3198-.4839,3.3638-1.6201,6.8403-3.4199,10.4404-1.8003,3.5996-3.4199,7.0815-4.8599,10.4399,4.7979-4.0781,9.5962-8.0381,14.3999-11.8804,4.7979-3.8359,9.9561-7.1997,15.48-10.0796,2.396-1.4404,5.1582-2.7563,8.2798-3.9604,3.1162-1.1978,6.3564-2.0361,9.7202-2.5195,3.3579-.4785,6.7163-.6582,10.0801-.54,3.3579.1235,6.48.7817,9.3599,1.98,6.48,3.1216,10.0181,7.8018,10.6201,14.04.5962,6.2437.1797,12.3638-1.2603,18.3594-2.6436,8.4043-6.8398,16.5039-12.6001,24.2998-5.7598,7.8018-11.0415,15.3008-15.8398,22.5-4.3198,6.4805-8.522,12.96-12.6001,19.4404-4.0835,6.4795-8.0435,13.2021-11.8799,20.1602-.7202,1.4395-1.7998,3.4199-3.2402,5.9395-1.4399,2.5205-2.5195,5.04-3.2397,7.5605-.7202,2.5195-.7202,4.6797,0,6.4795s2.8799,2.4639,6.48,1.9805c7.6782-1.918,14.4561-5.0967,20.3398-9.54,5.8784-4.4385,11.2163-9.54,16.02-15.2998,4.7983-5.7607,9.2983-11.8799,13.5-18.3604,4.1963-6.4805,8.46-12.5996,12.7803-18.3604.478-.7197,1.1978-2.0361,2.1597-3.96.9565-1.918,2.0981-3.5996,3.4204-5.04,1.3159-1.4395,2.6377-2.3955,3.96-2.8799,1.3159-.4775,2.6997.2422,4.1396,2.1602.7202,1.2041.9004,2.5205.54,3.96-.3599,1.4404-1.0234,2.9424-1.98,4.5-.9619,1.5635-1.9238,3.0039-2.8799,4.3203-.9619,1.3213-1.7998,2.3398-2.52,3.0596-5.7598,7.9199-11.8237,16.0205-18.1802,24.2998-6.3618,8.2803-13.1396,15.9639-20.3398,23.04-7.2002,7.082-15.1201,13.2021-23.7598,18.3604-8.6401,5.1641-18.124,8.5781-28.4404,10.2598-4.3198.2363-8.2236-.54-11.6997-2.3398-3.4819-1.7998-6.1821-4.9775-8.1001-9.54-2.1602-5.04-2.8237-10.3164-1.98-15.8398.8384-5.5186,2.52-10.9805,5.04-16.3799,2.52-5.4004,5.3999-10.6201,8.6401-15.6602,3.2397-5.04,6.1763-9.5967,8.8198-13.6797,4.3198-6.958,8.8198-13.917,13.5-20.8799,4.6802-6.959,9.0562-13.917,13.1401-20.8809,1.918-2.6377,3.7798-5.3379,5.5801-8.0996,1.7998-2.7559,3.4199-5.5801,4.8599-8.4595,1.1982-1.9185,2.0981-4.3203,2.6997-7.2002.5967-2.8799-.1797-5.04-2.3398-6.48-1.9238-1.1982-4.022-1.3164-6.2998-.3599-2.2837.9619-4.3818,1.7998-6.3003,2.52-8.1616,3.5996-15.4233,8.8198-21.7798,15.6592-6.3618,6.8408-12.3018,13.5-17.8198,19.9805-2.4019,2.6436-4.562,5.3438-6.48,8.0996-1.9238,2.7617-3.8423,5.5801-5.7603,8.46-8.4038,12.96-16.8638,25.8643-25.3799,38.7002-8.522,12.8418-16.9819,25.7402-25.3799,38.7002-.4839,1.2041-1.2603,2.7617-2.3403,4.6797-1.0801,1.9238-2.1035,3.3643-3.0601,4.3203-1.2036.9561-3.1216,1.2598-5.7598.9004-2.6382-.3604-4.5562-.417-5.7603-.1807h-15.6597c-3.4766,0-5.6362-.54-6.48-1.6201-.8384-1.0801-.54-3.0596.8999-5.9395s3.8418-7.2002,7.1997-12.96c10.8003-17.0381,21.4204-33.958,31.8604-50.7598,10.4399-16.7969,20.8179-33.8408,31.1396-51.1201,1.1982-2.1602,2.4585-4.3203,3.7803-6.48,1.3164-2.1602,2.5762-4.4385,3.7798-6.8403Z"/>
    <path d="M551.6562,301.1357c.7202,5.5234,2.6382,9.1797,5.7603,10.9805,3.1162,1.7998,6.7778,2.4629,10.98,1.9795,4.1963-.4785,8.46-1.6758,12.7798-3.5996,4.3203-1.918,7.9199-3.8369,10.8003-5.7607,6.7163-4.0781,13.5-9.416,20.3398-16.0195,6.8398-6.5986,13.2583-13.3203,19.2598-20.1602,5.9966-6.8398,11.3965-13.2578,16.2002-19.2598,4.7983-5.9961,8.6401-10.5586,11.52-13.6797,1.6763-1.9189,2.8184-2.3408,3.4199-1.2607.5962,1.0801.6582,2.582.1802,4.5-1.2036,3.6006-3.6001,7.9824-7.2002,13.1406-3.6001,5.1631-7.9199,10.6201-12.96,16.3799s-10.502,11.6436-16.3799,17.6396c-5.8838,6.002-11.7002,11.5205-17.46,16.5605-5.7603,5.04-11.104,9.4834-16.02,13.3193-4.9219,3.8418-8.9438,6.6045-12.0601,8.2803-4.562,2.6436-9.7817,4.7422-15.6602,6.2998-5.8838,1.5586-11.6436,2.2168-17.2798,1.9805-5.6421-.2422-10.9238-1.6826-15.8398-4.3203-4.9219-2.6377-8.8203-6.8398-11.7002-12.5996-2.3965-5.04-3.6562-10.4404-3.7798-16.2002-.1182-5.7598.4834-11.5205,1.7998-17.2803,1.3218-5.7598,3.1221-11.3398,5.3999-16.7402,2.2837-5.3994,4.7363-10.4961,7.3799-15.2998,6.9585-13.4375,15.48-25.4365,25.5601-36,10.0801-10.5576,21.6001-19.6758,34.5601-27.3594,6.2383-4.0781,12.7803-7.4365,19.6201-10.0801,6.8398-2.6382,13.8599-4.5562,21.0601-5.7603,4.5562-.9561,9.478-1.1982,14.7598-.7197,5.2764.4834,9.2363,3.0034,11.8799,7.5601,2.1602,3.3638,3.1167,6.9019,2.8804,10.6196-.2422,3.7241-1.0801,7.3804-2.52,10.98-1.4399,3.6001-3.3018,6.9639-5.5801,10.0801-2.2837,3.1221-4.624,5.8838-7.02,8.2803-5.7603,6.2432-12.3018,11.6436-19.6201,16.1992-7.3237,4.5625-14.7036,8.5225-22.1401,11.8799-4.0835,1.6826-8.0996,3.1846-12.0596,4.5-3.96,1.3223-8.1001,2.582-12.4204,3.7803-2.4019.4844-5.2817.8438-8.6396,1.0801-3.3638.2422-5.8838,1.3223-7.5601,3.2402-1.9238,1.9238-3.4199,4.8037-4.5,8.6396-1.0801,3.8418-2.2222,7.082-3.4199,9.7207-1.6821,3.8418-2.9419,7.8633-3.7803,12.0596-.8438,4.2021-1.0234,8.3418-.54,12.4199ZM569.2964,247.1357c8.3979-.4785,16.02-3.1162,22.8599-7.9199,6.8403-4.7979,13.3765-9.9561,19.6201-15.4805,3.1162-2.6377,6.0581-5.4561,8.8198-8.46,2.7563-2.998,5.2202-6.1758,7.3804-9.54,1.4399-2.6372,3.1162-5.9395,5.04-9.8994,1.918-3.96,2.7559-7.498,2.52-10.6201-.2422-2.6377-1.0801-4.1958-2.52-4.6797-1.4404-.478-3.2402-.2983-5.4004.54-2.1597.8438-4.5,2.1597-7.02,3.96-2.52,1.7998-4.8599,3.6616-7.02,5.5801-2.1597,1.9233-4.0835,3.7798-5.7598,5.5796-1.6816,1.8003-2.7617,2.9419-3.2402,3.4204-6.9634,7.1992-13.2637,14.8213-18.8999,22.8594-5.6416,8.0439-11.1035,16.2617-16.3799,24.6602Z"/>
    <path d="M792.4956,71.8159c-9.6016,17.7637-19.5625,35.4038-29.8789,52.9199-10.3223,17.522-20.7002,35.1621-31.1401,52.9204-10.4399,17.7637-20.8237,35.583-31.1401,53.46-10.3218,17.8818-20.1597,36.0615-29.52,54.54-1.2036,1.9229-2.6436,4.6797-4.3198,8.2793-1.6821,3.6006-2.2837,6.9639-1.7998,10.0801,0,2.1602,1.0796,3.7803,3.2397,4.8604s5.1582.7812,9-.9004c6.48-3.8359,12.4199-8.3975,17.8198-13.6797,5.4004-5.2764,10.4404-10.8564,15.1201-16.7402,4.6802-5.8779,9.0562-12.0596,13.1401-18.54,4.0781-6.4795,8.0381-12.8359,11.8799-19.0801.478-1.1982,1.6201-3.1162,3.4199-5.7598,1.8003-2.6377,3.5381-3.96,5.2202-3.96,1.1982,0,1.918.54,2.1602,1.6201.2363,1.0801.2363,2.2832,0,3.5996-.2422,1.3223-.6641,2.582-1.2603,3.7803-.6021,1.2041-1.0239,2.042-1.2598,2.5195-6.2441,8.1621-12.4204,16.9824-18.54,26.46-6.1201,9.4844-12.7803,18.54-19.98,27.1807-7.2002,8.6396-15.1201,16.2002-23.7603,22.6797-8.6401,6.4805-18.3599,10.7998-29.1602,12.96-8.6396.4785-14.5234-1.6201-17.6396-6.2998s-4.6802-10.3779-4.6802-17.0996c0-6.7168,1.0801-13.6182,3.2402-20.7002,2.1597-7.0762,4.3198-12.7803,6.48-17.1006,7.1997-14.8779,15.1763-29.2773,23.9399-43.1992,8.7578-13.917,17.3359-28.0801,25.7397-42.48,10.0801-16.7964,20.0366-33.5366,29.8804-50.2202,9.8379-16.6782,19.6763-33.5361,29.5195-50.5801.957-1.6763,1.7383-3.2964,2.3398-4.8599.5957-1.5581,1.0176-3.1782,1.2598-4.8599v-4.6802c0-1.918.1191-3.4761.3613-4.6802.9551-.2358,3.1777-.5962,6.6602-1.0796,3.4746-.4785,7.3164-.9565,11.5195-1.4404,4.1953-.478,8.1562-.9561,11.8789-1.4399,3.7188-.478,6.418-.7197,8.1016-.7197,1.918.7197,2.8164,2.6436,2.6992,5.7598-.123,3.1221-.3047,5.2817-.541,6.48Z"/>
    <path d="M766.5698,189.1763c7.6787-4.7983,15.7783-9.0566,24.3008-12.7803,8.5156-3.7183,17.46-5.8164,26.8193-6.2998,8.3984-.4785,16.2568.9619,23.5801,4.3198,7.3184,3.3638,12.6562,8.6401,16.0205,15.8398,1.6758,4.562,2.5195,9.8438,2.5195,15.8398,0,6.002-.6641,11.582-1.9795,16.7402-1.3223,5.1641-2.7002,10.0234-4.1406,14.5801-2.8799,6.9639-6.542,14.2197-10.9795,21.7793-4.4443,7.5605-9.3037,14.8223-14.5801,21.7803-4.8037,5.7598-10.0801,11.4023-15.8398,16.9199-5.7607,5.5244-11.9424,10.6201-18.54,15.2998-6.6045,4.6807-13.624,8.6406-21.0605,11.8809-7.4414,3.2393-15.2432,5.3379-23.3994,6.2998-7.9204.9561-15.9023.1182-23.9404-2.5205-8.0435-2.6377-14.4561-6.8398-19.2598-12.5996-5.5181-8.1562-8.2803-16.5605-8.2803-25.2002,0-3.1162.3037-6.5361.8999-10.2598.6021-3.7178,1.3838-7.2568,2.3403-10.6201,5.2817-15.8398,13.7363-30.7803,25.3799-44.8203,11.6382-14.04,24.8965-26.0996,39.7803-36.1792h.3594ZM733.4502,292.8555c-.4839,2.1602-.8999,4.2021-1.2603,6.1201-.3599,1.9238-.5396,3.1221-.5396,3.6006,0,3.1211.6577,5.8213,1.98,8.0996,1.3159,2.2842,4.0161,4.3818,8.0996,6.2998,4.0781,1.2041,8.3984.7197,12.96-1.4395,4.5566-2.1602,8.6406-4.3203,12.2402-6.4805-.2422,0,0-.2363.7197-.7197.7207-.4785,1.3164-.7197,1.7998-.7197,7.9209-6.7168,15.2383-14.3389,21.9609-22.8604,6.7158-8.5166,12.7793-17.2803,18.1797-26.2803,5.3994-9,10.0176-18,13.8594-27,3.8369-9,6.8408-17.46,9-25.3799.4785-1.1982.8389-2.6377,1.0801-4.3198.2363-1.6763.3604-3.4761.3604-5.3999,0-3.3579-.54-6.48-1.6201-9.3599s-3.1836-4.6802-6.2998-5.3999c-3.8418-.4785-7.8643.3599-12.0596,2.52-4.2021,2.1597-7.7402,4.3198-10.6201,6.48-8.4043,6.2437-16.5039,13.5615-24.3008,21.96-7.8018,8.4033-14.8213,17.1611-21.0596,26.2793-6.2441,9.124-11.5195,18.2422-15.8398,27.3604-4.3203,9.124-7.2002,17.5215-8.6401,25.2002v1.4395Z"/>
    <path d="M999.1299,192.0562c1.4395,8.1616,1.4395,16.4419,0,24.8394-1.4404,8.4043-4.084,16.6836-7.9199,24.8398-4.084,10.0801-9.3604,19.6201-15.8398,28.6201-6.4805,9-13.084,16.9824-19.8013,23.9404-5.5234,6.002-11.7617,11.3398-18.7197,16.0195-6.9639,4.6807-14.3994,8.584-22.3203,11.7002-7.6836,3.3643-15.9014,5.7041-24.6592,7.0205-8.7637,1.3154-16.9824-.0566-24.6602-4.1406-4.084-2.6377-6.9639-4.4375-8.6406-5.3994-1.6816-.957-3.96.4834-6.8398,4.3193-6.002,8.6406-12.96,18-20.8799,28.0801s-16.5596,19.9805-25.9199,29.7002-19.3779,18.6582-30.0596,26.8203c-10.6768,8.1562-21.7188,14.6357-33.1201,19.4395-11.3965,4.7979-22.9785,7.3799-34.7402,7.7402-11.7563.3594-23.5181-2.582-35.2798-8.8203-2.6382-1.4395-4.7363-3.6621-6.3003-6.6602-1.5581-3.0039-2.5762-6.3613-3.0601-10.0801-.478-3.7236-.416-7.4414.1802-11.1592.6021-3.7246,1.8618-6.9023,3.7798-9.54,2.1602-2.8809,4.8604-4.8037,8.1001-5.7607,3.2402-.9619,6.4238-1.0801,9.54-.3594,3.1221.7197,5.8218,2.2783,8.1001,4.6797,2.2837,2.3965,3.3018,5.6367,3.0601,9.7197,0,1.6768-.478,3.1787-1.4399,4.5-.9565,1.3164-1.8564,2.7002-2.7002,4.1406-.8379,1.4395-1.4961,2.9355-1.98,4.5-.478,1.5576-.3599,3.1777.3599,4.8594,1.2041,2.6387,3.3022,4.4385,6.3003,5.4004,3.0034.9561,5.8218,1.5576,8.46,1.7998,8.1616.7197,15.8398-.4834,23.04-3.5996,7.1997-3.1221,13.9834-7.2617,20.3398-12.4199,6.3623-5.1641,12.2402-10.8623,17.6396-17.1006,5.4004-6.2432,10.3838-12.2402,14.9404-18,5.5234-6.9639,10.9238-14.2197,16.2002-21.7793,5.2812-7.5605,10.5635-14.9404,15.8398-22.1406,4.8037-7.4355,9.54-14.6973,14.2197-21.7793,4.6797-7.0762,9.1797-14.5801,13.5-22.5,4.3203-7.6787,8.876-15.5361,13.6797-23.5801,4.7988-8.0381,9.5967-16.0205,14.4004-23.9404,4.0781-7.4365,8.6396-15.1201,13.6797-23.04s9.2363-15.8394,12.6006-23.7593c1.1982-2.3965,1.918-4.7363,2.1602-7.02.2363-2.2783.5957-5.0967,1.0801-8.4604.4775,0,2.0361-.0562,4.6797-.1797,2.6377-.1182,5.6357-.2983,9-.54,3.3584-.2363,6.8398-.4165,10.4395-.54,3.6006-.1182,6.7168-.1802,9.3604-.1802.7197,1.2041,1.1367,2.1602,1.2598,2.8804.1182.7197.1807,1.4399.1807,2.1597.4775,3.1221.2363,6.4238-.7207,9.8999-.9619,3.4819-2.042,6.6602-3.2393,9.54,5.9961-5.04,12.2959-10.1978,18.8994-15.48,6.5986-5.2759,13.9785-8.876,22.1411-10.7998,7.6777-1.1982,14.3994.1802,20.1592,4.1401,5.7607,3.96,9.5967,9.7817,11.5205,17.46ZM914.5288,299.6953c1.1982-1.4395,4.1406-5.3379,8.8203-11.6992,4.6797-6.3564,9.9004-13.8604,15.6602-22.5,5.7598-8.6406,11.3398-17.8203,16.7402-27.54,5.3999-9.7207,9.5405-18.54,12.4204-26.46s3.7803-14.3999,2.7002-19.4399-5.3438-7.2002-12.7808-6.48c-3.5996.4834-7.0205,1.6816-10.2598,3.6001-3.2402,1.9233-6.3623,4.2017-9.3604,6.8398-3.0039,2.6436-5.8223,5.4619-8.46,8.4595-2.6436,3.0039-5.04,5.7041-7.2002,8.1006-10.5635,12.4814-19.9238,25.5596-28.0801,39.2393-4.083,6.7227-8.3418,13.5-12.7793,20.3408-4.4443,6.8398-8.3428,13.8594-11.7002,21.0596-2.1602,4.8037-3.0039,9.7822-2.5205,14.9404.4785,5.1631,3.8369,8.583,10.0801,10.2598,3.6006.9619,7.0762,1.0234,10.4404.1797,3.3574-.8379,6.5977-2.2783,9.7197-4.3203,3.1162-2.0361,6.1201-4.376,9-7.0195,2.8799-2.6387,5.4004-5.1582,7.5596-7.5605Z"/>
    <path d="M1016.0488,301.1357c.7197,5.5234,2.6387,9.1797,5.7598,10.9805,3.1162,1.7998,6.7783,2.4629,10.9805,1.9795,4.1963-.4785,8.46-1.6758,12.7803-3.5996,4.3193-1.918,7.9199-3.8369,10.7998-5.7607,6.7158-4.0781,13.5-9.416,20.3398-16.0195,6.8398-6.5986,13.2578-13.3203,19.2598-20.1602,5.9961-6.8398,11.3965-13.2578,16.2002-19.2598,4.7979-5.9961,8.6396-10.5586,11.5205-13.6797,1.6758-1.9189,2.8174-2.3408,3.4199-1.2607.5957,1.0801.6582,2.582.1797,4.5-1.2041,3.6006-3.5996,7.9824-7.2002,13.1406-3.5996,5.1631-7.9199,10.6201-12.96,16.3799s-10.502,11.6436-16.3799,17.6396c-5.8838,6.002-11.7002,11.5205-17.46,16.5605s-11.1035,9.4834-16.0205,13.3193c-4.9219,3.8418-8.9434,6.6045-12.0596,8.2803-4.5615,2.6436-9.7822,4.7422-15.6602,6.2998-5.8838,1.5586-11.6436,2.2168-17.2803,1.9805-5.6416-.2422-10.9229-1.6826-15.8398-4.3203-4.9219-2.6377-8.8193-6.8398-11.7002-12.5996-2.3955-5.04-3.6562-10.4404-3.7793-16.2002-.1182-5.7598.4834-11.5205,1.7998-17.2803,1.3223-5.7598,3.1221-11.3398,5.4004-16.7402,2.2832-5.3994,4.7354-10.4961,7.3799-15.2998,6.958-13.4375,15.4795-25.4365,25.5596-36,10.0801-10.5576,21.6006-19.6758,34.5605-27.3594,6.2373-4.0781,12.7793-7.4365,19.6191-10.0801,6.8408-2.6382,13.8604-4.5562,21.0605-5.7603,4.5557-.9561,9.4775-1.1982,14.7598-.7197,5.2764.4834,9.2363,3.0034,11.8799,7.5601,2.1602,3.3638,3.1162,6.9019,2.8799,10.6196-.2412,3.7241-1.0801,7.3804-2.5195,10.98-1.4404,3.6001-3.3018,6.9639-5.5801,10.0801-2.2842,3.1221-4.624,5.8838-7.0205,8.2803-5.7598,6.2432-12.3018,11.6436-19.6191,16.1992-7.3242,4.5625-14.7041,8.5225-22.1406,11.8799-4.084,1.6826-8.0996,3.1846-12.0596,4.5-3.96,1.3223-8.1006,2.582-12.4199,3.7803-2.4023.4844-5.2822.8438-8.6406,1.0801-3.3633.2422-5.8838,1.3223-7.5596,3.2402-1.9238,1.9238-3.4199,4.8037-4.5,8.6396-1.0801,3.8418-2.2217,7.082-3.4199,9.7207-1.6816,3.8418-2.9424,7.8633-3.7803,12.0596-.8438,4.2021-1.0234,8.3418-.54,12.4199ZM1033.6895,247.1357c8.3975-.4785,16.0195-3.1162,22.8594-7.9199,6.8398-4.7979,13.376-9.9561,19.6201-15.4805,3.1162-2.6377,6.0586-5.4561,8.8203-8.46,2.7559-2.998,5.2197-6.1758,7.3799-9.54,1.4395-2.6372,3.1162-5.9395,5.04-9.8994,1.918-3.96,2.7559-7.498,2.5195-10.6201-.2412-2.6377-1.0801-4.1958-2.5195-4.6797-1.4404-.478-3.2402-.2983-5.4004.54-2.1602.8438-4.5,2.1597-7.0195,3.96-2.5205,1.7998-4.8604,3.6616-7.0205,5.5801-2.1602,1.9233-4.084,3.7798-5.7598,5.5796-1.6816,1.8003-2.7617,2.9419-3.2402,3.4204-6.9639,7.1992-13.2637,14.8213-18.8994,22.8594-5.6426,8.0439-11.1045,16.2617-16.3799,24.6602Z"/>
    <path d="M1363.4492,297.5361c-4.3203,3.8418-8.7637,7.6836-13.3203,11.5195-4.5615,3.8418-9.3037,7.3799-14.2197,10.6201-4.9219,3.2402-10.0801,5.9404-15.4805,8.0996-5.3994,2.1602-11.1035,3.4766-17.0996,3.96-8.4033,1.1982-15.8398,0-22.3203-3.5996-6.4795-3.5996-10.6816-9.8379-12.5996-18.7197-2.1602-9.8379-2.1602-19.5586,0-29.1602,2.1602-9.5967,5.4004-18.9561,9.7197-28.0801,4.3203-9.1182,9.2363-17.876,14.7607-26.2803,5.5176-8.3975,10.7998-16.4355,15.8398-24.1196,7.6777-11.52,15.4795-22.7979,23.3994-33.8398,7.9199-11.0361,15.5986-22.0781,23.04-33.1201,3.6006-5.2764,7.2002-10.7378,10.7998-16.3799,3.6006-5.6362,7.0205-11.3965,10.2607-17.2798,3.2393-5.8784,6.0576-11.8804,8.46-18,2.3955-6.1201,4.0781-12.2964,5.04-18.54.9561-5.04.7764-10.0801-.54-15.1201-1.3223-5.04-4.7422-8.5161-10.2607-10.4399-4.5615-1.9185-9.4834-2.6382-14.7598-2.1602-5.2812.4839-10.5635,1.3218-15.8398,2.52-12.4814,3.6001-23.8223,8.8818-34.0195,15.8398-10.2041,6.9639-19.8623,15.48-28.9805,25.5601-9.3604,10.564-18.0615,21.1841-26.0996,31.8604-8.0439,10.6816-14.9404,22.8599-20.7002,36.5396-1.9238,4.084-3.96,9.2422-6.1201,15.48-2.1602,6.2441-3.4814,12.4819-3.96,18.7202-.4834,6.2437.2979,12.0039,2.3398,17.2798,2.0361,5.2817,6.2998,8.8823,12.7803,10.8003,4.7979,1.2031,9.8379,1.6201,15.1201,1.2598,5.2764-.3604,9.9561-1.4961,14.04-3.4199,4.0781-1.918,7.498-4.1963,10.2598-6.8398,2.7559-2.6382,5.8164-5.1582,9.1797-7.5601,3.8369-2.3965,6.1768-2.7002,7.0205-.8999.8379,1.7998.2979,4.3818-1.6201,7.7397-2.8799,3.8413-6.2441,7.6216-10.0801,11.3403-3.8418,3.7236-7.5605,7.0195-11.1602,9.8994-7.2002,6.9639-15.542,12.0039-25.0195,15.1201-9.4844,3.1221-19.2607,2.8799-29.3408-.7197-5.2812-1.918-9.7197-4.7988-13.3193-8.6406-3.6006-3.8359-6.4238-8.1562-8.46-12.96-2.042-4.7979-3.3643-9.8994-3.96-15.2993-.6025-5.3999-.54-10.6201.1797-15.6602,1.1982-11.52,4.3203-22.6182,9.3604-33.2998,5.04-10.6763,10.7998-20.9365,17.2793-30.7803,6.7168-10.0801,14.1582-19.6196,22.3203-28.6196,8.1562-9,17.2803-17.3364,27.3604-25.02,9.8379-6.9585,20.1602-13.6802,30.96-20.1602s21.96-11.52,33.4795-15.1201c4.7988-1.4399,10.1982-2.6997,16.2002-3.7798,5.9961-1.0801,12.1162-1.7383,18.3604-1.98,6.2383-.2363,12.2393.1797,18,1.2598,5.7598,1.0801,10.7998,3.1836,15.1201,6.3003,5.2754,3.8418,9.1797,8.46,11.6992,13.8599,2.5205,5.3999,4.0781,11.1035,4.6807,17.1001.5957,6.0015.416,12.1216-.54,18.3599-.9619,6.2437-2.2842,12.2397-3.96,18-4.3203,12.4819-9.9004,24.3618-16.7402,35.6401-6.8398,11.2837-13.8604,22.3198-21.0605,33.1196-7.6836,12.0039-15.6592,23.7041-23.9395,35.1001-8.2803,11.4014-15.9023,23.1016-22.8604,35.0996-3.1221,5.2822-6.1816,10.7441-9.1797,16.3799-3.0039,5.6426-5.8223,11.2227-8.46,16.7402-1.2041,2.4023-2.2217,4.9834-3.0605,7.7402-.8438,2.7617-1.3828,5.5234-1.6191,8.2803-.2422,2.7617,0,5.3994.7197,7.9199.7197,2.5195,2.1602,4.8594,4.3203,7.0195,4.0781,3.6006,8.7578,4.7422,14.04,3.4199,5.2754-1.3164,10.5576-3.7178,15.8398-7.2002,5.2764-3.4756,10.1357-7.3799,14.5801-11.6992,4.4375-4.3203,7.9756-7.9199,10.6191-10.8008,9.1182-9.5957,18-19.4961,26.6406-29.6992,8.6396-10.1982,17.0381-20.7002,25.2002-31.5,17.2793-23.5181,33.3555-47.458,48.2393-71.8203,14.8789-24.356,29.5205-49.2578,43.9199-74.6997,4.0781-7.2002,7.1387-12.3584,9.1807-15.48,2.0361-3.1162,4.2578-5.2202,6.6602-6.3003,2.3955-1.0796,5.3994-1.5581,9-1.4399,3.5996.124,9-.0562,16.1992-.54,8.1562-.7197,13.0166.124,14.5801,2.52,1.5586,2.4019,1.3789,5.6421-.54,9.7202-1.9238,4.0835-4.8037,8.5835-8.6396,13.5-3.8418,4.9219-6.8398,9.54-9,13.8599-13.9219,25.6836-28.7441,50.7036-44.46,75.0601-15.7217,24.3618-31.2637,49.0215-46.6201,73.9795-7.2002,12.0039-14.2822,24.1201-21.2402,36.3604-6.9639,12.2402-14.04,24.3613-21.2393,36.3604-7.2002,12.0029-14.7607,23.8154-22.6807,35.459-7.9199,11.6387-16.3232,22.7363-25.2002,33.3008-7.9199,9.8379-16.7393,18.9561-26.46,27.3594-9.7197,8.3984-19.9795,15.7783-30.7793,22.1406-10.7998,6.3555-22.1406,11.5195-34.0205,15.4795s-24.0635,6.2998-36.54,7.0205c-5.5234.4775-11.2832.6572-17.2793.54-6.002-.124-12.0039-.7822-18-1.9805-6.002-1.2041-11.582-3.1221-16.7402-5.7598-5.1582-2.6436-9.54-6.2441-13.1406-10.7998-3.3574-4.3203-5.5791-9.124-6.6592-14.4004-1.0801-5.2822-1.0801-10.502,0-15.6602,1.0801-5.1641,3.1211-9.8994,6.1191-14.2197,3.0039-4.3203,7.0205-7.6836,12.0605-10.0801,5.04-2.4023,9.8379-2.8799,14.4004-1.4404,4.5557,1.4404,8.2178,3.96,10.9795,7.5605,2.7559,3.5996,4.2578,7.7959,4.5,12.5996.2363,4.7979-1.4404,9.3604-5.04,13.6807-1.4395,1.918-3.0039,3.7793-4.6797,5.5791-1.6816,1.8008-2.5205,4.0166-2.5205,6.6602,0,2.8799,1.0186,5.4561,3.0605,7.7402,2.0361,2.2783,4.376,4.1396,7.0195,5.5801,5.04,2.6377,10.4404,3.8359,16.2002,3.5996,5.7598-.2412,11.3965-.9619,16.9199-2.1592,12.4766-3.1221,23.8164-8.2803,34.0205-15.4805,10.1973-7.2002,19.5576-15.542,28.0791-25.0195,8.5166-9.4844,16.2568-19.5645,23.2207-30.2402,6.958-10.6816,13.6797-21.1836,20.1602-31.5,7.6777-12.2402,15.3555-24.418,23.04-36.54,7.6777-12.1162,15.2373-24.2998,22.6797-36.54-5.7598,6.7217-11.7002,13.084-17.8203,19.0801-6.1201,6.002-12.5439,12.1221-19.2598,18.3604Z"/>
    <path d="M1605.3652,173.3359h36c-10.0801,17.7637-19.9238,35.5215-29.5205,53.2803-9.6016,17.7637-19.7998,35.043-30.5996,51.8398-.9619,1.4395-2.4639,4.3193-4.5,8.6396-2.042,4.3203-3.6006,8.6396-4.6807,12.96-1.0791,4.3203-1.2031,7.9199-.3594,10.7998.8379,2.8799,3.6562,3.6006,8.46,2.1602,6.7158-3.8359,12.6562-8.5156,17.8203-14.04,5.1572-5.5176,9.9561-11.458,14.3994-17.8193,4.4385-6.3564,8.8203-12.7188,13.1406-19.0801,4.3193-6.3564,9-12.2969,14.0391-17.8203,1.9189-1.918,3.4766-2.6387,4.6807-2.1602,1.1982.4834,2.0361.9619,2.5195,1.4404,0,.2412-.6016,1.3213-1.7998,3.2393-6.4795,7.6846-12.5996,15.9639-18.3604,24.8408-5.7598,8.8818-11.9414,17.4033-18.54,25.5596-6.6035,8.1621-13.8594,15.3623-21.7793,21.5996-7.9199,6.2441-17.1621,10.5645-27.7207,12.96-5.5234.2363-9.6016-.9619-12.2393-3.5996-2.6436-2.6377-4.4443-5.9961-5.4004-10.0801-.9619-4.0781-1.3838-8.3984-1.2598-12.96.1182-4.5566.416-8.7578.8994-12.5996-2.6436,2.8799-6.0635,6.4238-10.2598,10.6201-4.2012,4.2012-8.8193,8.46-13.8594,12.7793-5.04,4.3203-10.2607,8.2236-15.6602,11.7002-5.4004,3.4766-10.6816,5.7598-15.8398,6.8398-5.1641,1.0801-9.9619.5967-14.4004-1.4395-4.4434-2.042-8.0996-6.418-10.9805-13.1406-2.8799-6.7158-4.1953-13.5-3.96-20.3398.2422-6.8398,1.4404-13.6182,3.6006-20.3398,2.1602-6.7158,4.9834-13.1963,8.46-19.4404,3.4766-6.2373,7.0195-12.1162,10.6201-17.6396,7.9199-11.998,17.0996-22.916,27.54-32.7598,10.4395-9.8379,21.8975-18.2363,34.3799-25.1997,4.3203-2.3965,9.2979-4.7363,14.9395-7.02,5.6367-2.2783,11.1602-3.6562,16.5605-4.1401,5.3994-.478,10.3779.3599,14.9395,2.52,4.5566,2.1602,8.0381,6.48,10.4404,12.96,1.4404-2.6382,2.8799-5.1582,4.3203-7.5601,1.4395-2.396,2.7559-4.916,3.96-7.5601ZM1557.8447,255.416c.7197-1.4404,2.458-4.1963,5.2197-8.2803,2.7568-4.0781,5.6982-8.7578,8.8203-14.04,3.1162-5.2764,6.0586-10.918,8.8203-16.9199,2.7559-5.9961,4.6797-11.5195,5.7598-16.5596s1.0186-9.2363-.1797-12.6001c-1.2041-3.3584-4.4443-5.2764-9.7207-5.7603-3.8418.7202-7.6211,2.2222-11.3398,4.5-3.7236,2.2837-7.3799,5.04-10.9795,8.2803-3.6006,3.2397-6.9639,6.6035-10.0801,10.0801-3.1221,3.4814-6.1201,6.7832-9,9.8994-5.7598,7.6836-11.4023,15.6035-16.9199,23.7598-5.5244,8.1621-10.6816,16.4424-15.4805,24.8408-1.4395,2.6436-3.2393,5.9395-5.3994,9.8994s-4.084,8.1006-5.7607,12.4199c-1.6816,4.3203-2.8232,8.584-3.4199,12.7803-.6016,4.2021.0566,7.8633,1.9805,10.9795,1.6758,3.1221,3.8984,4.9219,6.6602,5.4004,2.7559.4834,5.5801.2422,8.46-.7197,2.8799-.9561,5.6982-2.3398,8.46-4.1406,2.7559-1.7998,4.9775-3.5381,6.6602-5.2197,7.4355-6.958,14.2764-14.5176,20.5195-22.6797,6.2383-8.1562,11.8799-16.7969,16.9199-25.9199Z"/>
    <path d="M1666.2021,194.2158c1.918-2.6377,2.8799-5.2759,2.8799-7.9199,0-2.6382.1182-5.5181.3594-8.6396.2363-2.6382.2988-4.1401.1807-4.5-.124-.3604.7764-.54,2.7002-.54,1.6758,0,4.4375-.1182,8.2793-.3604,3.8369-.2358,7.7402-.416,11.7002-.54,3.96-.1177,7.4365-.2358,10.4404-.3599,2.998-.1182,4.376-.1797,4.1396-.1797.4785.7197,1.0186,1.7998,1.6201,3.2397.5957,1.4399.8994,2.8799.8994,4.3198-.4834,3.3638-1.6191,6.8403-3.4199,10.4404-1.7998,3.5996-3.4199,7.0815-4.8594,10.4399,4.7979-4.0781,9.5957-8.0381,14.3994-11.8804,4.7988-3.8359,9.957-7.1997,15.4805-10.0796,2.3965-1.4404,5.1582-2.7563,8.2803-3.9604,3.1162-1.1978,6.3555-2.0361,9.7197-2.5195,3.3584-.4785,6.7158-.6582,10.0801-.54,3.3584.1235,6.4795.7817,9.3594,1.98,6.4805,3.1216,10.0186,7.8018,10.6201,14.04.5967,6.2437.1807,12.3638-1.2598,18.3594-2.6436,8.4043-6.8398,16.5039-12.5996,24.2998-5.7607,7.8018-11.042,15.3008-15.8398,22.5-4.3203,6.4805-8.5225,12.96-12.6006,19.4404-4.084,6.4795-8.0439,13.2021-11.8799,20.1602-.7197,1.4395-1.7998,3.4199-3.2402,5.9395-1.4395,2.5205-2.5195,5.04-3.2402,7.5605-.7197,2.5195-.7197,4.6797,0,6.4795.7207,1.7998,2.8809,2.4639,6.4805,1.9805,7.6777-1.918,14.4561-5.0967,20.3398-9.54,5.8779-4.4385,11.2168-9.54,16.0205-15.2998,4.7979-5.7607,9.2979-11.8799,13.5-18.3604,4.1963-6.4805,8.46-12.5996,12.7793-18.3604.4785-.7197,1.1982-2.0361,2.1602-3.96.9561-1.918,2.0986-3.5996,3.4199-5.04,1.3164-1.4395,2.6387-2.3955,3.96-2.8799,1.3164-.4775,2.7002.2422,4.1406,2.1602.7197,1.2041.8994,2.5205.54,3.96-.3604,1.4404-1.0244,2.9424-1.9805,4.5-.9619,1.5635-1.9238,3.0039-2.8799,4.3203-.9619,1.3213-1.7998,2.3398-2.5195,3.0596-5.7607,7.9199-11.8242,16.0205-18.1807,24.2998-6.3613,8.2803-13.1396,15.9639-20.3398,23.04-7.2002,7.082-15.1201,13.2021-23.7598,18.3604-8.6406,5.1641-18.124,8.5781-28.4404,10.2598-4.3193.2363-8.2236-.54-11.7002-2.3398-3.4814-1.7998-6.1816-4.9775-8.0996-9.54-2.1602-5.04-2.8232-10.3164-1.9795-15.8398.8379-5.5186,2.5195-10.9805,5.0391-16.3799,2.5205-5.4004,5.4004-10.6201,8.6406-15.6602s6.1758-9.5967,8.8203-13.6797c4.3193-6.958,8.8193-13.917,13.5-20.8799,4.6797-6.959,9.0557-13.917,13.1396-20.8809,1.918-2.6377,3.7803-5.3379,5.5801-8.0996,1.7998-2.7559,3.4199-5.5801,4.8594-8.4595,1.1982-1.9185,2.0986-4.3203,2.7002-7.2002.5967-2.8799-.1797-5.04-2.3398-6.48-1.9238-1.1982-4.0215-1.3164-6.2998-.3599-2.2842.9619-4.3818,1.7998-6.2998,2.52-8.1621,3.5996-15.4238,8.8198-21.7803,15.6592-6.3623,6.8408-12.3018,13.5-17.8203,19.9805-2.4014,2.6436-4.5615,5.3438-6.4795,8.0996-1.9238,2.7617-3.8418,5.5801-5.7598,8.46-8.4043,12.96-16.8643,25.8643-25.3809,38.7002-8.5215,12.8418-16.9814,25.7402-25.3799,38.7002-.4834,1.2041-1.2598,2.7617-2.3398,4.6797-1.0801,1.9238-2.1035,3.3643-3.0596,4.3203-1.2041.9561-3.1221,1.2598-5.7607.9004-2.6377-.3604-4.5557-.417-5.7598-.1807h-15.6602c-3.4756,0-5.6357-.54-6.4795-1.6201-.8379-1.0801-.54-3.0596.8994-5.9395,1.4404-2.8799,3.8428-7.2002,7.2002-12.96,10.7998-17.0381,21.4199-33.958,31.8604-50.7598,10.4395-16.7969,20.8184-33.8408,31.1396-51.1201,1.1982-2.1602,2.458-4.3203,3.7803-6.48,1.3164-2.1602,2.5762-4.4385,3.7803-6.8403Z"/>
    <path d="M1768.4434,328.4961c-4.084-2.6387-7.2002-5.9404-9.3594-9.9004-2.1602-3.96-3.6006-8.1562-4.3203-12.5996-.7197-4.4385-.9004-9-.54-13.6807.3604-4.6797,1.0186-9.1797,1.9795-13.5,3.1172-10.7998,7.7402-20.8174,13.8604-30.0596,6.1201-9.2363,12.8984-17.9385,20.3398-26.0996,7.9199-8.877,16.3799-17.1562,25.3799-24.8403,9-7.6782,19.0186-13.916,30.0605-18.7197,4.3203-1.9185,9.0557-3.6001,14.2197-5.04,5.1582-1.4399,10.1367-2.0981,14.9404-1.98,4.7979.1235,9.2979,1.2598,13.5,3.4199,4.1963,2.1602,7.498,5.8838,9.8994,11.1602,1.4404-1.6763,2.6387-3.2964,3.6006-4.8604.9561-1.5581,2.0361-2.8799,3.2393-3.96,1.1982-1.0801,2.5205-1.98,3.96-2.6997,1.4404-.7202,3.3584-1.1982,5.7607-1.4404,5.2764-.478,10.4395-.6577,15.4795-.5396,5.04.1235,9.9561.1797,14.7598.1797-13.6797,24.2437-27.6016,48.0039-41.7598,71.2803-14.1631,23.2812-28.6816,46.6816-43.5596,70.1992-6.002,9.6025-12.0605,19.3164-18.1807,29.1602-6.1191,9.8379-12.6611,19.3779-19.6191,28.6201-6.9639,9.2363-14.6426,17.7578-23.04,25.5596-8.4043,7.7969-17.7637,14.3389-28.0801,19.6201-9.3604,4.7979-19.4961,8.3984-30.4199,10.7998-10.9189,2.3965-21.7803,3.3584-32.5801,2.8799-3.3584-.2412-6.958-.6631-10.7998-1.2598-3.8369-.6016-7.499-1.6201-10.9805-3.0596-3.4766-1.4404-6.5977-3.4199-9.3604-5.9404-2.7559-2.5195-4.7363-5.5801-5.9395-9.1797-1.4404-4.5615-1.4961-9.124-.1807-13.6797,1.3223-4.5625,4.0225-8.0439,8.1006-10.4404,3.5996-2.6436,7.9199-3.7236,12.96-3.2402,5.04.4785,8.5215,3.1162,10.4395,7.9199.7207,2.1602.9004,4.0781.54,5.7607-.3594,1.6758-1.0176,3.2393-1.9795,4.6797-.9561,1.4395-1.7998,2.9365-2.5205,4.5-.7197,1.5576-1.0791,3.2959-1.0791,5.2197.2412,2.6387,1.2598,4.7363,3.0596,6.2998,1.7998,1.5586,3.9033,2.7002,6.2998,3.4199,2.4023.7207,4.8604,1.0801,7.3799,1.0801s4.7422-.123,6.6602-.3594c6.2441-.7207,12.1221-2.3398,17.6396-4.8604,5.5244-2.5195,10.7441-5.7041,15.6602-9.54,4.917-3.8418,9.4785-8.1621,13.6807-12.96,4.1963-4.8037,8.0996-9.6016,11.6992-14.3994,8.877-11.7627,17.0381-23.9404,24.4805-36.54,7.4365-12.6006,14.6357-25.3799,21.5996-38.3398-3.5996,3.3633-7.6836,6.8398-12.2393,10.4395-4.5625,3.6006-9.2422,6.6602-14.04,9.1807-4.8037,2.5195-9.8438,4.1396-15.1201,4.8594-5.2822.7197-10.4404-.124-15.4805-2.5195ZM1794.0039,310.1357c5.7598.2422,11.0361-.7764,15.8398-3.0596,4.7979-2.2783,9.2363-5.3389,13.3203-9.1807,4.0781-3.8359,7.9199-8.0381,11.5195-12.5996,3.5996-4.5566,6.8398-8.876,9.7197-12.96,3.8369-5.5186,7.7969-10.9805,11.8799-16.3799,4.0781-5.4004,8.0381-10.918,11.8809-16.5605,3.8359-5.6357,7.2559-11.458,10.2598-17.46,2.998-5.9961,5.4561-12.2402,7.3799-18.7197.4775-1.6763.8994-3.7798,1.2598-6.2998s.416-4.916.1797-7.2002c-.2412-2.2778-.9619-4.1958-2.1592-5.7598-1.2041-1.5581-3.1221-2.3398-5.7607-2.3398-2.8799-.2363-5.8213.3037-8.8193,1.6196-3.0039,1.3223-5.8838,2.9419-8.6406,4.8604-2.7617,1.9238-5.3994,4.0215-7.9199,6.2998-2.5195,2.2837-4.7412,4.3818-6.6602,6.2998-10.0801,10.0796-19.2598,20.8804-27.54,32.3999-8.2793,11.5205-15.9014,23.5234-22.8594,36-.9619,1.9238-2.5205,5.1016-4.6807,9.54-2.1592,4.4434-3.9033,8.9434-5.2197,13.5-1.3213,4.5615-1.6816,8.6396-1.0801,12.2402.5967,3.5996,3.2969,5.5234,8.1006,5.7598Z"/>
  </g>
  <rect x="641.1543" y="809.1406" width="0" height="2.1573" fill="none"/>
  <rect x="403.8507" y="743.3691" width="2.1573" height="3.2096" fill="none"/>
  <rect x="1012.2107" y="636.5562" width="2.1573" height="0" fill="none"/>
  <rect x="902.1882" y="757.3653" width="2.1573" height="0" fill="none"/>
  <rect x="1189.1097" y="822.0844" width="2.1573" height="0" fill="none"/>
  <polyline points="179.9339 181.0143 168.385 194.3677 136.2648 207.3601 104.8664 204.8338 92.9566 170.9091 107.0318 126.5182 136.4452 90.4281 168.385 64.4431 207.7233 44.9545 248.5052 34.8492 288.9261 34.8492 328.2644 47.8417 348.114 81.4055 345.5877 121.1047 327.5426 156.8339 299.7532 176.6835 276.6555 182.097 250.3359 178.376"/>
  <polyline points="312.7456 68.4131 281.7081 80.3228 254.2796 111.7212 217.8285 175.9617 191.8436 228.2924 161.167 271.6006 119.3024 306.969 84.6559 323.9313 50.3702 328.2622 19.6936 316.3524 13.5583 286.7585 25.1071 271.6006"/>
  <polyline points="312.7456 251.0292 340.1742 242.7285 368.3245 223.2398 386.7304 196.5331 386.7304 176.6835 363.9937 176.6835 336.926 191.1196 308.0539 218.1872 285.3171 255.36 273.4074 288.563 275.2119 315.9915 292.1742 323.2095 311.302 318.5178 334.7606 308.7735 354.6102 292.5329 369.4072 281.7059 386.7304 262.5781 404.0581 238.8555 417.4071 213.4955 431.8431 186.067 431.8431 176.6835 456.3844 176.6835 427.8732 218.909 375.1816 298.6682 364.8959 321.7659 374.4598 321.405 406.2191 267.9916 440.5048 222.1571 458.5499 203.3691 479.1212 186.067 501.4971 178.488 518.8204 181.0143 515.5723 205.1947 495.0009 241.2849 462.8807 282.0668 450.2491 314.9088 466.1288 323.2095 482.3694 318.8787 501.4971 306.969 518.8204 293.2547 539.7527 262.5781 554.9106 254.9991 576.9256 248.5029 602.9105 240.924 621.3164 229.0142 635.0307 211.691 649.4668 182.8188 640.8051 174.1572 612.2939 181.7361 581.6173 201.2248 558.5196 224.6834 544.8188 247.8555 532.5347 297.5855 536.5046 314.9088 550.2188 321.405 570.7902 320.6832 588.4744 311.6607 616.2638 290.3675 639.1367 269.8154 679.7825 222.518 688.805 197.9767 720.2035 146.0069 746.5493 96.2025 758.8199 71.6612 784.083 67.3304 729.226 147.8114 693.4967 213.1346 656.3239 280.2623 646.2186 314.187 654.8803 321.7659 670.0381 315.9915 694.2185 303.36 734.8965 239.9355 759.9026 204.8338 784.083 188.2324 815.1206 175.9617 836.7747 177.4053 849.7671 203.3691 835.331 242.3676 806.4589 281.7059 778.3086 309.1344 745.4666 326.0967 716.5944 314.5479 709.0155 285.3149"/>
  <polyline points="673.1058 393.044 673.1058 416.3221 688.2637 426.0665 716.9553 426.0665 751.6019 412.5327 780.8349 387.6305 798.6995 356.7734 823.0604 329.1644 855.5415 278.2773 873.4062 246.3375 903.1805 189.4955 912.9249 203.3691 926.4097 196.7358 958.7383 179.2098 980.5939 179.2098 985.4661 207.9015 968.6842 247.9616 944.8647 283.6908 914.5489 311.2998 897.767 321.5855 876.1129 323.2095 857.1656 308.593 849.7671 295.0592"/>
  <polyline points="1029.3156 248.5029 1056.9092 250.1953 1081.8268 227.9315 1104.0222 203.3691 1108.8944 179.2098 1096.3291 170.8159 1064.5035 188.4128 1032.5637 215.8534 1009.2856 243.6307 998.9999 277.7359 998.9999 311.2998 1009.8269 323.7509 1027.1502 321.0441 1057.2686 315.8955 1074.7892 293.4352 1095.9688 268.5557 1123.6895 235.6162"/>
  <polyline points="1299.1895 194.0361 1273.4655 215.8534 1238.819 226.3075 1213.9168 210.1718 1208.5032 165.676 1220.9543 133.1949 1259.3903 95.8416 1296.7437 55.7815 1330.8488 39.5409 1361.7059 27.6312 1394.1871 32.5034 1406.6382 59.6996 1396.8938 115.3303 1357.3751 160.8038 1325.9767 203.3691 1299.9918 251.2097 1288.082 283.1495 1292.9542 318.3374 1319.4804 318.3374 1341.1345 308.0517 1371.4503 282.6081 1396.5693 248.0361 1432.0817 219.2699 1469.435 168.3828 1501.3748 113.1648 1523.0289 73.1048 1532.7733 57.4056 1556.0514 54.1574 1480.8034 182.9993 1404.4728 296.1419 1355.7511 375.7207 1309.1948 415.7808 1278.3377 435.2695 1232.4092 437.5752 1193.8867 432.5627 1187.3905 404.4124 1195.5108 380.5929"/>
  <polyline points="1591.2393 188.4128 1579.8709 175.4204 1547.3898 181.9166 1517.074 216.0218 1484.5929 253.9164 1470.5177 293.9765 1474.8486 323.7509 1487.841 323.7509 1504.0816 318.3374 1540.5645 292.4961 1566.3371 253.9164 1582.5777 223.0594 1600.9836 194.3677 1609.1039 180.2925 1626.9686 179.2098 1602.0663 224.6834 1570.6679 275.5705 1556.0514 306.4276 1558.7582 323.7509 1580.165 313.0156 1612.8934 292.8938 1632.3821 264.7435 1658.9083 226.3075 1672.9835 192.2023 1680.6016 172.2559 1701.1338 179.2098 1689.7654 207.3601 1707.0887 199.2399 1731.002 177.6562 1755.8104 176.5031 1767.7201 190.5782 1752.0209 228.4729 1722.2466 258.7886 1698.4271 304.2622 1703.2992 317.796 1718.9984 317.796 1739.0285 312.3825 1753.645 299.9314 1774.7577 262.0367 1806.1562 213.8564 1844.5922 183.5406 1875.0039 172.0762 1893.3139 186.7888 1896.562 193.8263 1918.7383 184.082 1860.2914 288.563 1816.4419 355.6907 1789.9156 388.1718 1765.0134 410.3673 1733.615 423.9011 1699.5098 423.9011 1682.1865 407.1191 1683.8105 389.7959"/>
</svg>